<svg width="36" height="25" viewBox="0 0 36 25" fill="currentColor" xmlns="http://www.w3.org/2000/svg">
<g opacity="0.6">
<path d="M28.805 22.6392C28.4665 22.6393 28.1356 22.539 27.8541 22.351C27.5727 22.1631 27.3533 21.8958 27.2237 21.5832C27.0941 21.2705 27.0601 20.9264 27.1261 20.5945C27.192 20.2625 27.355 19.9575 27.5943 19.7182C27.8336 19.4788 28.1385 19.3158 28.4704 19.2497C28.8024 19.1836 29.1464 19.2175 29.4592 19.347C29.7719 19.4765 30.0391 19.6958 30.2272 19.9772C30.4152 20.2587 30.5156 20.5895 30.5156 20.928C30.5152 21.3816 30.3349 21.8165 30.0141 22.1373C29.6934 22.4581 29.2586 22.6386 28.805 22.6392ZM28.805 20.2503C28.6708 20.2502 28.5396 20.2899 28.428 20.3644C28.3164 20.4389 28.2294 20.5448 28.178 20.6687C28.1266 20.7927 28.1131 20.9291 28.1393 21.0607C28.1654 21.1923 28.23 21.3132 28.3249 21.408C28.4198 21.5029 28.5407 21.5675 28.6723 21.5937C28.8039 21.6198 28.9403 21.6063 29.0642 21.5549C29.1881 21.5036 29.294 21.4165 29.3685 21.3049C29.443 21.1933 29.4827 21.0622 29.4826 20.928C29.4825 20.7483 29.411 20.576 29.284 20.449C29.1569 20.3219 28.9846 20.2505 28.805 20.2503Z" fill="currentColor"/>
<path d="M34.485 21.445H32.011C31.874 21.445 31.7426 21.3906 31.6457 21.2937C31.5489 21.1968 31.4945 21.0655 31.4945 20.9285C31.4945 20.7915 31.5489 20.6601 31.6457 20.5632C31.7426 20.4664 31.874 20.412 32.011 20.412H33.9685V10.9646L29.7363 5.4334H23.6385V20.412H25.596C25.733 20.412 25.8644 20.4664 25.9612 20.5632C26.0581 20.6601 26.1125 20.7915 26.1125 20.9285C26.1125 21.0655 26.0581 21.1968 25.9612 21.2937C25.8644 21.3906 25.733 21.445 25.596 21.445H23.122C22.985 21.445 22.8536 21.3906 22.7567 21.2937C22.6599 21.1968 22.6055 21.0655 22.6055 20.9285V4.91689C22.6055 4.77991 22.6599 4.64853 22.7567 4.55167C22.8536 4.45481 22.985 4.40039 23.122 4.40039H29.9914C30.0708 4.40039 30.149 4.41865 30.2201 4.45376C30.2912 4.48887 30.3533 4.53989 30.4016 4.60286L34.8951 10.4755C34.9641 10.5656 35.0015 10.676 35.0015 10.7895V20.9285C35.0015 21.0655 34.9471 21.1968 34.8502 21.2937C34.7534 21.3906 34.622 21.445 34.485 21.445Z" fill="currentColor" stroke="currentColor" stroke-width="0.5"/>
<path d="M22.8312 21.7032H13.0065C12.8833 21.7032 12.7652 21.6486 12.6781 21.5516C12.591 21.4546 12.542 21.323 12.542 21.1857C12.542 21.0485 12.591 20.9169 12.6781 20.8198C12.7652 20.7228 12.8833 20.6683 13.0065 20.6683H22.3667V2.0349H1.92899V20.6683H5.64494C5.76813 20.6683 5.88628 20.7228 5.97339 20.8198C6.0605 20.9169 6.10943 21.0485 6.10943 21.1857C6.10943 21.323 6.0605 21.4546 5.97339 21.5516C5.88628 21.6486 5.76813 21.7032 5.64494 21.7032H1.46449C1.3413 21.7032 1.22316 21.6486 1.13605 21.5516C1.04894 21.4546 1 21.323 1 21.1857V1.51745C1 1.38021 1.04894 1.2486 1.13605 1.15156C1.22316 1.05452 1.3413 1 1.46449 1H22.8312C22.9544 1 23.0726 1.05452 23.1597 1.15156C23.2468 1.2486 23.2957 1.38021 23.2957 1.51745V21.1857C23.2957 21.323 23.2468 21.4546 23.1597 21.5516C23.0726 21.6486 22.9544 21.7032 22.8312 21.7032Z" fill="currentColor" stroke="currentColor" stroke-width="0.5"/>
<path d="M22.8312 15.3328H1.46449C1.3413 15.3328 1.22316 15.2489 1.13605 15.0996C1.04894 14.9502 1 14.7477 1 14.5365C1 14.3253 1.04894 14.1228 1.13605 13.9735C1.22316 13.8241 1.3413 13.7402 1.46449 13.7402H22.8312C22.9544 13.7402 23.0726 13.8241 23.1597 13.9735C23.2468 14.1228 23.2957 14.3253 23.2957 14.5365C23.2957 14.7477 23.2468 14.9502 23.1597 15.0996C23.0726 15.2489 22.9544 15.3328 22.8312 15.3328Z" fill="currentColor" stroke="currentColor" stroke-width="0.5"/>
<path d="M9.49929 24.651C8.76298 24.6509 8.04324 24.4324 7.43107 24.0233C6.8189 23.6142 6.3418 23.0327 6.0601 22.3524C5.7784 21.6721 5.70475 20.9235 5.84846 20.2014C5.99216 19.4793 6.34678 18.8159 6.86747 18.2953C7.38815 17.7747 8.05152 17.4202 8.77368 17.2766C9.49585 17.133 10.2444 17.2067 10.9246 17.4885C11.6049 17.7703 12.1863 18.2475 12.5954 18.8597C13.0044 19.4719 13.2228 20.1917 13.2228 20.928C13.2217 21.9152 12.829 22.8616 12.1309 23.5595C11.4329 24.2575 10.4864 24.65 9.49929 24.651ZM9.49929 18.2376C8.96731 18.2377 8.44731 18.3955 8.00503 18.6911C7.56275 18.9867 7.21805 19.4069 7.01452 19.8984C6.81099 20.3899 6.75776 20.9307 6.86157 21.4524C6.96538 21.9742 7.22156 22.4534 7.59773 22.8296C7.97389 23.2058 8.45315 23.4619 8.9749 23.5657C9.49665 23.6696 10.0375 23.6163 10.529 23.4128C11.0205 23.2093 11.4406 22.8646 11.7362 22.4223C12.0318 21.98 12.1896 21.46 12.1897 20.928C12.1889 20.2148 11.9052 19.531 11.4008 19.0267C10.8964 18.5224 10.2125 18.2388 9.49929 18.2381V18.2376Z" fill="currentColor"/>
<path d="M9.50409 22.5854C9.1764 22.5853 8.85609 22.488 8.58368 22.3059C8.31126 22.1238 8.09897 21.8649 7.97364 21.5622C7.8483 21.2594 7.81557 20.9262 7.87956 20.6049C7.94355 20.2835 8.1014 19.9883 8.33315 19.7566C8.5649 19.5249 8.86014 19.3672 9.18154 19.3033C9.50294 19.2394 9.83607 19.2722 10.1388 19.3977C10.4415 19.5231 10.7003 19.7355 10.8823 20.0079C11.0644 20.2804 11.1616 20.6007 11.1616 20.9284C11.161 21.3678 10.9862 21.789 10.6755 22.0996C10.3647 22.4103 9.94346 22.585 9.50409 22.5854ZM9.50409 20.304C9.38073 20.3041 9.26017 20.3407 9.15764 20.4093C9.05511 20.4779 8.97522 20.5754 8.92806 20.6894C8.8809 20.8034 8.86859 20.9288 8.89268 21.0498C8.91677 21.1707 8.97619 21.2819 9.06341 21.3691C9.15064 21.4563 9.26177 21.5157 9.38275 21.5398C9.50374 21.5639 9.62915 21.5516 9.74314 21.5045C9.85712 21.4573 9.95458 21.3774 10.0232 21.2749C10.0918 21.1724 10.1284 21.0518 10.1285 20.9284C10.1283 20.7629 10.0624 20.6043 9.94531 20.4874C9.82825 20.3704 9.66957 20.3046 9.50409 20.3045V20.304Z" fill="currentColor"/>
<path d="M28.805 24.651C28.0687 24.651 27.3489 24.4326 26.7366 24.0235C26.1244 23.6145 25.6472 23.033 25.3654 22.3527C25.0836 21.6725 25.0099 20.9239 25.1536 20.2017C25.2972 19.4795 25.6518 18.8162 26.1725 18.2955C26.6931 17.7748 27.3565 17.4203 28.0787 17.2766C28.8009 17.133 29.5494 17.2067 30.2297 17.4885C30.91 17.7703 31.4914 18.2474 31.9005 18.8597C32.3096 19.4719 32.5279 20.1917 32.5279 20.928C32.5268 21.9151 32.1342 22.8614 31.4363 23.5593C30.7383 24.2573 29.792 24.6499 28.805 24.651ZM28.805 18.2376C28.273 18.2376 27.7529 18.3953 27.3106 18.6909C26.8682 18.9864 26.5235 19.4065 26.3198 19.898C26.1162 20.3895 26.0629 20.9303 26.1667 21.4521C26.2704 21.9739 26.5266 22.4532 26.9027 22.8294C27.2789 23.2056 27.7581 23.4619 28.2799 23.5657C28.8016 23.6696 29.3425 23.6164 29.834 23.4128C30.3256 23.2093 30.7457 22.8646 31.0413 22.4223C31.337 21.98 31.4948 21.46 31.4949 20.928C31.4941 20.2149 31.2104 19.5311 30.7062 19.0269C30.2019 18.5226 29.5181 18.2389 28.805 18.2381V18.2376Z" fill="currentColor"/>
<path d="M31.4694 14.2145H25.7001C25.5631 14.2145 25.4317 14.16 25.3349 14.0632C25.238 13.9663 25.1836 13.8349 25.1836 13.6979V7.92861C25.1836 7.79163 25.238 7.66025 25.3349 7.56339C25.4317 7.46653 25.5631 7.41211 25.7001 7.41211H29.2691C29.3486 7.41215 29.427 7.43053 29.4982 7.46583C29.5695 7.50112 29.6316 7.55238 29.6797 7.61561L31.88 10.5003C31.9487 10.5902 31.9859 10.7002 31.9859 10.8133V13.6979C31.9859 13.8349 31.9315 13.9663 31.8346 14.0632C31.7378 14.16 31.6064 14.2145 31.4694 14.2145ZM26.2166 13.1814H30.9529V10.9879L29.0135 8.44512H26.2166V13.1814Z" fill="currentColor" stroke="currentColor" stroke-width="0.5"/>
</g>
</svg>
