<svg width="31" height="30" viewBox="0 0 31 30" fill="none" xmlns="http://www.w3.org/2000/svg">
<path d="M18.162 27.4152C17.9129 27.4773 17.6588 27.5325 17.4066 27.5789C16.7474 27.7015 16.3116 28.3355 16.4335 28.9953C16.4938 29.3199 16.6781 29.5902 16.9284 29.7667C17.1864 29.9483 17.5147 30.0303 17.8492 29.9681C18.1495 29.9123 18.4522 29.8468 18.7492 29.7727C19.4001 29.6106 19.7967 28.9512 19.6343 28.3005C19.4723 27.6493 18.8134 27.2531 18.162 27.4152Z" fill="currentColor"/>
<path d="M27.146 11.1312C27.2311 11.3877 27.3936 11.597 27.5988 11.7417C27.9031 11.956 28.3012 12.0281 28.6811 11.9025C29.3181 11.691 29.6633 11.0041 29.4525 10.3674C29.3565 10.0772 29.25 9.78601 29.1365 9.50253C28.8873 8.87957 28.1807 8.57627 27.5574 8.82545C26.9348 9.07451 26.6313 9.78134 26.8807 10.4045C26.9761 10.6428 27.0654 10.8873 27.146 11.1312Z" fill="currentColor"/>
<path d="M22.1095 25.68C21.8952 25.8215 21.6741 25.9584 21.4512 26.0867C20.8699 26.422 20.6708 27.1651 21.006 27.7462C21.097 27.9042 21.2182 28.0334 21.3578 28.1322C21.7326 28.3958 22.2415 28.4353 22.6653 28.1912C22.9302 28.0384 23.1936 27.8759 23.4488 27.7071C24.0084 27.3374 24.1624 26.5837 23.7925 26.0239C23.4227 25.4639 22.6693 25.3101 22.1095 25.68Z" fill="currentColor"/>
<path d="M30.206 14.5246C30.1796 13.8541 29.6148 13.3322 28.9441 13.3584C28.2743 13.3848 27.752 13.9498 27.7783 14.62C27.7884 14.8763 27.791 15.1364 27.7851 15.3924C27.7756 15.8129 27.9813 16.1877 28.3009 16.413C28.4913 16.547 28.7224 16.6282 28.9729 16.6339C29.6434 16.6488 30.1991 16.1169 30.214 15.4461C30.2207 15.1402 30.2181 14.8303 30.206 14.5246Z" fill="currentColor"/>
<path d="M26.9463 22.4837C26.4086 22.0803 25.6479 22.1898 25.2452 22.7265C25.091 22.932 24.9286 23.135 24.7623 23.3305C24.3277 23.8411 24.3891 24.608 24.8997 25.0429C24.9288 25.0676 24.9582 25.0902 24.9888 25.1115C25.4964 25.4694 26.2018 25.3872 26.6122 24.9056C26.8108 24.6724 27.0044 24.4299 27.1887 24.1844C27.5914 23.6477 27.4824 22.8865 26.9463 22.4837Z" fill="currentColor"/>
<path d="M28.735 18.0931C28.0948 17.8923 27.4131 18.2487 27.2125 18.8889C27.1357 19.1335 27.0506 19.3792 26.9588 19.6199C26.7571 20.1497 26.9503 20.7326 27.3933 21.045C27.4746 21.1021 27.5641 21.1505 27.6614 21.1873C28.2882 21.4265 28.9901 21.112 29.229 20.4849C29.338 20.1988 29.4393 19.9064 29.5308 19.6157C29.7312 18.9753 29.3751 18.2938 28.735 18.0931Z" fill="currentColor"/>
<path d="M12.8619 27.5893C11.7758 27.3943 10.7339 27.0622 9.74594 26.599C9.73424 26.5929 9.72379 26.586 9.71151 26.5804C9.47869 26.4708 9.24627 26.3534 9.02099 26.2308C9.02021 26.2299 9.01878 26.2293 9.01754 26.2288C8.6042 26.0012 8.20081 25.7493 7.8089 25.4734C2.09427 21.4479 0.720248 13.5236 4.74606 7.80902C5.62145 6.56686 6.68081 5.53056 7.86185 4.70921C7.8764 4.69907 7.89095 4.689 7.90537 4.67881C12.0671 1.81123 17.7182 1.61797 22.1373 4.56467L21.1882 5.93603C20.9243 6.31774 21.0867 6.59589 21.5486 6.55432L25.6714 6.18522C26.1339 6.14365 26.4105 5.74356 26.2861 5.2969L25.179 1.30798C25.055 0.860802 24.7377 0.807276 24.4736 1.18891L23.5223 2.56352C20.2792 0.386532 16.3895 -0.443587 12.5287 0.225887C12.1399 0.293185 11.7565 0.375554 11.3784 0.471434C11.3754 0.471954 11.3731 0.472279 11.3708 0.472798C11.3562 0.476371 11.3413 0.481113 11.3271 0.485076C7.99794 1.34001 5.09327 3.28172 3.0206 6.05212C3.00312 6.07284 2.98513 6.09311 2.96863 6.11565C2.89971 6.20848 2.83131 6.30345 2.76433 6.39842C2.65481 6.55406 2.54685 6.7136 2.44356 6.87314C2.43064 6.89237 2.42076 6.91192 2.40946 6.93135C0.699071 9.58176 -0.125916 12.6459 0.0155657 15.7654C0.0158905 15.7757 0.0153058 15.786 0.0155657 15.7965C0.0292722 16.1012 0.0534372 16.4102 0.0862418 16.7143C0.0879957 16.734 0.092348 16.7525 0.0956609 16.7721C0.12957 17.078 0.172118 17.3845 0.22545 17.691C0.767474 20.818 2.24258 23.6319 4.45296 25.8214C4.45809 25.8265 4.46342 25.8321 4.46861 25.8374C4.47043 25.8394 4.47245 25.8405 4.4742 25.8423C5.06806 26.4281 5.71402 26.9698 6.40954 27.4597C8.22971 28.7423 10.2565 29.59 12.4332 29.9807C13.0936 30.0993 13.7245 29.6597 13.843 28.9996C13.9614 28.339 13.5222 27.7076 12.8619 27.5893Z" fill="currentColor"/>
<path d="M14.3661 5.29492C13.8228 5.29492 13.3828 5.73535 13.3828 6.27783V16.0703L22.3388 20.7C22.4829 20.7747 22.6373 20.8098 22.7892 20.8098C23.1449 20.8098 23.4885 20.6161 23.6631 20.2781C23.9123 19.7957 23.7237 19.2031 23.2414 18.954L15.3483 14.8734V6.27783C15.3482 5.73535 14.9087 5.29492 14.3661 5.29492Z" fill="currentColor"/>
</svg>
