<svg width="30" height="30" viewBox="0 0 30 30" fill="none" xmlns="http://www.w3.org/2000/svg">
<g opacity="0.6">
<g clip-path="url(#clip0)">
<path d="M15 0C6.70318 0 0 6.69545 0 15C0 23.3046 6.69545 30 15 30C23.3046 30 30 23.3046 30 15C30 6.69545 23.2969 0 15 0ZM15 27.9944C7.80118 27.9944 2.00556 22.1988 2.00556 14.9999C2.00556 7.80112 7.80124 2.00551 15 2.00551C22.1988 2.00551 27.9944 7.80112 27.9944 14.9999C27.9944 22.1988 22.1988 27.9944 15 27.9944Z" fill="#6F7581" stroke="#6F7581" stroke-width="0.01"/>
<path d="M22.1989 10.6002C21.8024 10.2036 21.1999 10.2036 20.7957 10.6002L13.1013 18.2947L9.20444 14.3979C8.80792 14.0014 8.20543 14.0014 7.8013 14.3979C7.40478 14.7944 7.40478 15.3968 7.8013 15.801L12.3996 20.3994C12.5979 20.5976 12.7961 20.6968 13.1012 20.6968C13.3986 20.6968 13.6045 20.5976 13.8028 20.3994L22.1989 12.0034C22.5954 11.6068 22.5954 11.0045 22.1989 10.6002Z" fill="#6F7581" stroke="#6F7581" stroke-width="0.01"/>
</g>
</g>
<defs>
<clipPath id="clip0">
<rect width="30" height="30" fill="white"/>
</clipPath>
</defs>
</svg>
