<svg width="180" height="180" viewBox="0 0 180 180" fill="none" xmlns="http://www.w3.org/2000/svg">
<circle cx="90" cy="90" r="90" fill="#F66A08" fill-opacity="0.1"/>
<path d="M86.9724 90.2841C86.9724 90.2841 87.3109 86.6404 85.9728 85.1249C84.6185 83.6094 82.2807 82.5775 81.0232 83.5449C79.7656 84.5122 78.3791 88.7202 78.4436 89.3651C78.5081 90.0261 86.9724 90.2841 86.9724 90.2841Z" fill="#D39D71"/>
<path d="M88.035 89.3639L86.6807 106.389L75.5723 105.245L77.2651 88.2837L88.035 89.3639Z" fill="#FF7E21"/>
<path d="M94.4531 83.2219C94.4531 83.2219 86.9239 64.2297 80.1847 64.4554C80.1847 64.4554 77.2504 65.3905 80.3137 68.3409C83.377 71.2913 94.4531 83.2219 94.4531 83.2219Z" fill="#A8D29F"/>
<path d="M94.0499 83.5439C94.0499 83.5439 81.7484 73.7898 79.0398 75.8857C79.0398 75.8857 77.5082 76.9014 79.3139 77.772C81.1196 78.6427 88.2619 79.7874 94.0499 83.5439Z" fill="#A8D29F"/>
<path d="M95.0318 82.2701C94.9512 82.1572 90.4046 71.6615 92.1942 71.6131C93.9838 71.5809 95.0318 82.2701 95.0318 82.2701Z" fill="#A8D29F"/>
<path d="M103.754 89.6231C103.722 89.4618 96.015 79.7561 96.015 79.7561C96.015 79.7561 93.5482 79.7722 93.0484 81.2233C92.5486 82.6582 91.0492 82.2228 90.3398 82.9322L99.707 93.8472L103.754 89.6231Z" fill="#FF7E21"/>
<path d="M71.7881 108.163L75.9961 107.615C76.77 107.518 77.3342 106.792 77.2214 106.018L75.7704 94.9262C75.6736 94.1523 74.9481 93.5881 74.1742 93.7009L69.9663 94.2491C69.1924 94.3458 68.6281 95.0713 68.741 95.8452L70.192 106.937C70.2887 107.711 71.0142 108.26 71.7881 108.163Z" fill="#C5631E"/>
<path d="M71.6104 96.7968L73.2549 96.5872C73.5612 96.5549 73.7708 96.2647 73.7386 95.9584L73.1743 91.6215C73.142 91.3151 72.8518 91.1055 72.5455 91.1378L70.901 91.3474C70.5947 91.3796 70.3851 91.6698 70.4173 91.9762L70.9816 96.3131C71.03 96.6194 71.3041 96.8452 71.6104 96.7968Z" fill="#C5631E"/>
<path d="M70.9472 103.347L75.5195 102.75L74.6009 95.7159L70.0286 96.3131L70.9472 103.347Z" fill="#F1A34F"/>
<path d="M78.3815 107.179L84.2662 106.873C84.6531 106.856 84.9433 106.518 84.9272 106.147L84.8305 104.293C84.8144 103.906 84.4758 103.616 84.105 103.632L78.2203 103.938C77.8333 103.954 77.5431 104.293 77.5592 104.664L77.656 106.518C77.6721 106.905 77.9945 107.195 78.3815 107.179Z" fill="#C5631E"/>
<path d="M80.0774 104.438L82.2862 104.325C82.4313 104.325 82.5441 104.196 82.528 104.051L82.4958 103.358C82.4958 103.213 82.3668 103.1 82.2217 103.116L80.0129 103.229C79.8678 103.229 79.7549 103.358 79.7711 103.503L79.8033 104.196C79.8194 104.341 79.9323 104.454 80.0774 104.438Z" fill="#C5631E"/>
<path d="M77.6408 106.266L84.918 105.881L84.8446 104.497L77.5675 104.882L77.6408 106.266Z" fill="#F1A34F"/>
<path d="M96.6999 98.9379L117.234 104.712L125.365 75.7961L104.831 70.022L96.6999 98.9379Z" fill="#FFB078"/>
<path d="M88.4511 106.354L100.754 105.759L100.026 90.7187L87.7236 91.3138L88.4511 106.354Z" fill="#C5631E"/>
<path d="M101.443 105.431L109.688 105.032L109.547 102.134L101.303 102.532L101.443 105.431Z" fill="#C5631E"/>
<path d="M61.1642 127.59C64.5822 127.59 67.3713 130.363 67.3713 133.797C67.3713 137.215 64.5983 140.005 61.1642 140.005C57.7462 140.005 54.957 137.232 54.957 133.797C54.957 130.363 57.7301 127.59 61.1642 127.59Z" fill="#2F2F57"/>
<path d="M61.1623 130.944C62.7423 130.944 64.016 132.218 64.016 133.798C64.016 135.378 62.7423 136.651 61.1623 136.651C59.5823 136.651 58.3086 135.378 58.3086 133.798C58.3086 132.218 59.5823 130.944 61.1623 130.944Z" fill="#EE9849"/>
<path d="M110.625 127.59C114.043 127.59 116.832 130.363 116.832 133.797C116.832 137.215 114.059 140.005 110.625 140.005C107.207 140.005 104.418 137.232 104.418 133.797C104.418 130.363 107.191 127.59 110.625 127.59Z" fill="#2F2F57"/>
<path d="M110.627 130.944C112.207 130.944 113.481 132.218 113.481 133.798C113.481 135.378 112.207 136.651 110.627 136.651C109.047 136.651 107.773 135.378 107.773 133.798C107.773 132.218 109.047 130.944 110.627 130.944Z" fill="#EE9849"/>
<mask id="path-21-outside-1_592_82074" maskUnits="userSpaceOnUse" x="47.5586" y="59.271" width="81" height="52" fill="black">
<rect fill="white" x="47.5586" y="59.271" width="81" height="52"/>
<path d="M48.813 61.5681C49.1677 61.1973 49.7482 61.165 50.1351 61.5197L58.0674 68.8877C58.1802 69.0006 58.277 69.1295 58.3253 69.2908L59.341 72.4669L125.959 75.6269C126.201 75.643 126.443 75.7559 126.604 75.9332C126.765 76.1106 126.862 76.3524 126.846 76.6104L125.476 104.647C125.459 105.115 125.089 105.502 124.621 105.534L69.9013 109.468C69.8851 109.468 69.8529 109.468 69.8368 109.468C69.4337 109.468 69.079 109.21 68.95 108.823L57.7449 73.66C57.7449 73.6438 57.7288 73.6277 57.7288 73.6116L56.6002 70.0808L48.8614 62.8901C48.4745 62.5354 48.4584 61.9389 48.813 61.5681ZM67.4184 97.9082L73.5288 97.6663L70.9654 87.3479L64.0327 87.2835L67.4184 97.9082ZM75.1894 97.618L82.0738 97.36L79.7521 87.4286L72.6582 87.3641L75.1894 97.618ZM84.2342 106.566L82.4446 98.94L75.5764 99.198L77.5272 107.034L84.2342 106.566ZM92.1826 105.986L90.8121 98.6176L84.0891 98.8755L85.8625 106.437L92.1826 105.986ZM100.953 105.357L99.8891 98.279L92.4566 98.5692L93.8109 105.873L100.953 105.357ZM108.273 104.825L107.757 97.9727L101.501 98.2145L102.565 105.228L108.273 104.825ZM117.14 104.18L116.721 97.6341L109.369 97.9082L109.885 104.696L117.14 104.18ZM124.411 87.7994L117.688 87.7349L118.22 95.9574L124.024 95.7316L124.411 87.7994ZM116.076 87.7349L108.595 87.6704L109.24 96.3121L116.608 96.0218L116.076 87.7349ZM107.757 76.6104L108.466 86.0581L115.963 86.1226L115.367 76.9812L107.757 76.6104ZM98.164 76.1589L99.6473 85.9775L106.838 86.042L106.129 76.5298L98.164 76.1589ZM88.2003 75.6914L90.1028 85.913L98.035 85.9775L96.5356 76.0944L88.2003 75.6914ZM78.5429 75.2238L81.0258 85.8163L88.4583 85.8808L86.5558 75.5947L78.5429 75.2238ZM98.2607 87.5898L90.393 87.5253L92.1503 96.9731L99.6473 96.6829L98.2607 87.5898ZM101.26 96.6184L107.628 96.3765L106.967 87.6543L99.8891 87.5898L101.26 96.6184ZM88.7485 87.5092L81.3966 87.4447L83.7021 97.2955L90.5058 97.0376L88.7485 87.5092ZM79.3652 85.8163L76.8662 75.1593L69.5305 74.8047L72.239 85.7518L79.3652 85.8163ZM116.995 77.0457L117.592 86.1226L124.508 86.1871L124.927 77.4165L116.995 77.0457ZM123.96 97.36L118.333 97.5696L118.752 104.051L123.654 103.696L123.96 97.36ZM70.4978 107.566L75.8988 107.179L73.948 99.2786L67.9343 99.5043L70.4978 107.566ZM63.5329 85.6712L70.5784 85.7357L67.8537 74.724L59.9214 74.3532L63.5329 85.6712Z"/>
</mask>
<path d="M48.813 61.5681C49.1677 61.1973 49.7482 61.165 50.1351 61.5197L58.0674 68.8877C58.1802 69.0006 58.277 69.1295 58.3253 69.2908L59.341 72.4669L125.959 75.6269C126.201 75.643 126.443 75.7559 126.604 75.9332C126.765 76.1106 126.862 76.3524 126.846 76.6104L125.476 104.647C125.459 105.115 125.089 105.502 124.621 105.534L69.9013 109.468C69.8851 109.468 69.8529 109.468 69.8368 109.468C69.4337 109.468 69.079 109.21 68.95 108.823L57.7449 73.66C57.7449 73.6438 57.7288 73.6277 57.7288 73.6116L56.6002 70.0808L48.8614 62.8901C48.4745 62.5354 48.4584 61.9389 48.813 61.5681ZM67.4184 97.9082L73.5288 97.6663L70.9654 87.3479L64.0327 87.2835L67.4184 97.9082ZM75.1894 97.618L82.0738 97.36L79.7521 87.4286L72.6582 87.3641L75.1894 97.618ZM84.2342 106.566L82.4446 98.94L75.5764 99.198L77.5272 107.034L84.2342 106.566ZM92.1826 105.986L90.8121 98.6176L84.0891 98.8755L85.8625 106.437L92.1826 105.986ZM100.953 105.357L99.8891 98.279L92.4566 98.5692L93.8109 105.873L100.953 105.357ZM108.273 104.825L107.757 97.9727L101.501 98.2145L102.565 105.228L108.273 104.825ZM117.14 104.18L116.721 97.6341L109.369 97.9082L109.885 104.696L117.14 104.18ZM124.411 87.7994L117.688 87.7349L118.22 95.9574L124.024 95.7316L124.411 87.7994ZM116.076 87.7349L108.595 87.6704L109.24 96.3121L116.608 96.0218L116.076 87.7349ZM107.757 76.6104L108.466 86.0581L115.963 86.1226L115.367 76.9812L107.757 76.6104ZM98.164 76.1589L99.6473 85.9775L106.838 86.042L106.129 76.5298L98.164 76.1589ZM88.2003 75.6914L90.1028 85.913L98.035 85.9775L96.5356 76.0944L88.2003 75.6914ZM78.5429 75.2238L81.0258 85.8163L88.4583 85.8808L86.5558 75.5947L78.5429 75.2238ZM98.2607 87.5898L90.393 87.5253L92.1503 96.9731L99.6473 96.6829L98.2607 87.5898ZM101.26 96.6184L107.628 96.3765L106.967 87.6543L99.8891 87.5898L101.26 96.6184ZM88.7485 87.5092L81.3966 87.4447L83.7021 97.2955L90.5058 97.0376L88.7485 87.5092ZM79.3652 85.8163L76.8662 75.1593L69.5305 74.8047L72.239 85.7518L79.3652 85.8163ZM116.995 77.0457L117.592 86.1226L124.508 86.1871L124.927 77.4165L116.995 77.0457ZM123.96 97.36L118.333 97.5696L118.752 104.051L123.654 103.696L123.96 97.36ZM70.4978 107.566L75.8988 107.179L73.948 99.2786L67.9343 99.5043L70.4978 107.566ZM63.5329 85.6712L70.5784 85.7357L67.8537 74.724L59.9214 74.3532L63.5329 85.6712Z" fill="#16162E"/>
<path d="M48.813 61.5681C49.1677 61.1973 49.7482 61.165 50.1351 61.5197L58.0674 68.8877C58.1802 69.0006 58.277 69.1295 58.3253 69.2908L59.341 72.4669L125.959 75.6269C126.201 75.643 126.443 75.7559 126.604 75.9332C126.765 76.1106 126.862 76.3524 126.846 76.6104L125.476 104.647C125.459 105.115 125.089 105.502 124.621 105.534L69.9013 109.468C69.8851 109.468 69.8529 109.468 69.8368 109.468C69.4337 109.468 69.079 109.21 68.95 108.823L57.7449 73.66C57.7449 73.6438 57.7288 73.6277 57.7288 73.6116L56.6002 70.0808L48.8614 62.8901C48.4745 62.5354 48.4584 61.9389 48.813 61.5681ZM67.4184 97.9082L73.5288 97.6663L70.9654 87.3479L64.0327 87.2835L67.4184 97.9082ZM75.1894 97.618L82.0738 97.36L79.7521 87.4286L72.6582 87.3641L75.1894 97.618ZM84.2342 106.566L82.4446 98.94L75.5764 99.198L77.5272 107.034L84.2342 106.566ZM92.1826 105.986L90.8121 98.6176L84.0891 98.8755L85.8625 106.437L92.1826 105.986ZM100.953 105.357L99.8891 98.279L92.4566 98.5692L93.8109 105.873L100.953 105.357ZM108.273 104.825L107.757 97.9727L101.501 98.2145L102.565 105.228L108.273 104.825ZM117.14 104.18L116.721 97.6341L109.369 97.9082L109.885 104.696L117.14 104.18ZM124.411 87.7994L117.688 87.7349L118.22 95.9574L124.024 95.7316L124.411 87.7994ZM116.076 87.7349L108.595 87.6704L109.24 96.3121L116.608 96.0218L116.076 87.7349ZM107.757 76.6104L108.466 86.0581L115.963 86.1226L115.367 76.9812L107.757 76.6104ZM98.164 76.1589L99.6473 85.9775L106.838 86.042L106.129 76.5298L98.164 76.1589ZM88.2003 75.6914L90.1028 85.913L98.035 85.9775L96.5356 76.0944L88.2003 75.6914ZM78.5429 75.2238L81.0258 85.8163L88.4583 85.8808L86.5558 75.5947L78.5429 75.2238ZM98.2607 87.5898L90.393 87.5253L92.1503 96.9731L99.6473 96.6829L98.2607 87.5898ZM101.26 96.6184L107.628 96.3765L106.967 87.6543L99.8891 87.5898L101.26 96.6184ZM88.7485 87.5092L81.3966 87.4447L83.7021 97.2955L90.5058 97.0376L88.7485 87.5092ZM79.3652 85.8163L76.8662 75.1593L69.5305 74.8047L72.239 85.7518L79.3652 85.8163ZM116.995 77.0457L117.592 86.1226L124.508 86.1871L124.927 77.4165L116.995 77.0457ZM123.96 97.36L118.333 97.5696L118.752 104.051L123.654 103.696L123.96 97.36ZM70.4978 107.566L75.8988 107.179L73.948 99.2786L67.9343 99.5043L70.4978 107.566ZM63.5329 85.6712L70.5784 85.7357L67.8537 74.724L59.9214 74.3532L63.5329 85.6712Z" stroke="#16162E" stroke-width="2" mask="url(#path-21-outside-1_592_82074)"/>
<path d="M52.1811 65.8251C52.4875 65.8251 52.7938 65.6962 53.0195 65.4543C53.4226 64.9868 53.3903 64.2935 52.9228 63.8743L48.8599 60.279C48.3924 59.8759 47.6991 59.9243 47.2799 60.3757C46.8768 60.8433 46.9091 61.5366 47.3766 61.9558L51.4395 65.5349C51.6491 65.7284 51.9232 65.8251 52.1811 65.8251Z" fill="#EE9849"/>
<path d="M124.536 105.696C125.133 105.696 125.617 105.229 125.649 104.632L127.019 76.5952C127.051 75.9826 126.568 75.4505 125.955 75.4183C125.342 75.386 124.81 75.8697 124.778 76.4824L123.408 104.519C123.376 105.132 123.859 105.664 124.472 105.696C124.488 105.696 124.52 105.696 124.536 105.696Z" fill="#EE9849"/>
<path d="M109.943 127.211L109.674 133.616L109.674 133.621C109.66 134.031 109.861 134.409 110.203 134.587C110.375 134.676 110.584 134.713 110.796 134.66C111.011 134.606 111.186 134.472 111.309 134.294C111.31 134.294 111.31 134.294 111.31 134.294L116.156 127.337L116.912 127.348L124.608 130.36C124.795 130.439 124.976 130.461 125.135 130.461C125.706 130.461 126.249 130.115 126.472 129.547L126.472 129.547L126.475 129.537C126.743 128.807 126.402 127.988 125.66 127.691L125.655 127.69L118.95 125.077L120.429 120.928C120.43 120.927 120.43 120.926 120.43 120.925C120.705 120.173 120.3 119.362 119.568 119.093C118.815 118.817 118.002 119.221 117.733 119.954L117.732 119.959L116.127 124.473L63.6766 123.521V115.398L70.7143 109.632C71.343 109.127 71.4032 108.231 70.9189 107.626C70.4141 106.995 69.5163 106.934 68.9102 107.419L68.9102 107.419L68.9053 107.423L61.3439 113.63L61.3438 113.63L61.3381 113.635C61.0181 113.905 60.8225 114.318 60.8225 114.742V124.915C60.8225 125.479 61.15 125.987 61.6417 126.218L60.4751 133.278C60.4058 133.67 60.5964 134.023 60.9002 134.19C61.2177 134.365 61.6423 134.322 61.9181 133.987L61.9195 133.986L68.0698 126.451L109.943 127.211Z" fill="#16162E" stroke="#16162E"/>
<circle cx="119.769" cy="53.7533" r="13.7533" fill="#F66A08"/>
<path d="M127.364 48.3514C127.065 48.0522 126.58 48.0522 126.28 48.3514L117.102 57.5302L113.574 54.002C113.274 53.7028 112.789 53.7029 112.49 54.002C112.191 54.3012 112.191 54.7863 112.49 55.0855L116.56 59.1553C116.859 59.4545 117.344 59.4543 117.643 59.1553L127.364 49.4348C127.663 49.1357 127.663 48.6506 127.364 48.3514Z" fill="white"/>
</svg>
