<svg width="30" height="30" viewBox="0 0 30 30" fill="none" xmlns="http://www.w3.org/2000/svg">
<g opacity="0.6">
<g clip-path="url(#clip0)">
<path d="M29.9994 5.14378C29.9994 5.1405 29.999 5.13722 29.9989 5.13388C29.9985 5.12081 29.9978 5.10792 29.9963 5.09515C29.9957 5.09046 29.9948 5.08577 29.9941 5.08109C29.9923 5.06931 29.9902 5.05771 29.9875 5.04634C29.9864 5.04183 29.9852 5.03738 29.984 5.03286C29.9806 5.0205 29.9767 5.00837 29.9723 4.99642C29.9715 4.99413 29.9709 4.99179 29.9701 4.98956L28.778 1.93789C28.6578 1.63039 28.3668 1.43164 28.0366 1.43164H25.866C25.6294 1.43164 25.4377 1.62342 25.4377 1.86002C25.4377 2.09662 25.6294 2.2884 25.866 2.2884H27.9951L28.9438 4.71704H19.9746L19.4127 2.2884H22.7251C22.9617 2.2884 23.1535 2.09662 23.1535 1.86002C23.1535 1.62342 22.9617 1.43164 22.7251 1.43164H18.8738H14.5574H5.3946C5.06437 1.43164 4.77339 1.63039 4.65322 1.93801L3.46113 4.98956C3.46025 4.99185 3.45978 4.99419 3.4589 4.99642C3.45445 5.00831 3.45058 5.02044 3.44719 5.03286C3.44596 5.03738 3.44478 5.04183 3.44373 5.04634C3.44103 5.05777 3.43887 5.06937 3.43711 5.08109C3.4364 5.08577 3.43553 5.09046 3.43494 5.09515C3.43348 5.10792 3.43265 5.12081 3.4323 5.13388C3.43224 5.13716 3.43183 5.14044 3.43178 5.14378C3.43178 5.14431 3.43172 5.14484 3.43172 5.14536V11.4389C3.43172 11.6755 3.62349 11.8673 3.8601 11.8673C4.0967 11.8673 4.28847 11.6755 4.28847 11.4389V5.5738H13.3688V12.0852C13.3688 12.3398 13.5188 12.5719 13.7511 12.6763C13.8361 12.7146 13.9266 12.7333 14.0165 12.7333C14.1722 12.7333 14.3261 12.6774 14.4468 12.5704L16.7156 10.5604L18.9844 12.5703C19.1749 12.7393 19.4481 12.7808 19.6803 12.6763C19.9124 12.5718 20.0624 12.3398 20.0624 12.0852V5.5738H29.1427V24.788C29.1427 25.0954 28.8926 25.3455 28.5852 25.3455H20.7306C20.7306 25.3407 20.73 25.3358 20.7299 25.3309C20.7294 25.2925 20.728 25.2541 20.7248 25.216C21.4623 25.4116 22.2503 25.0325 22.5458 24.3077C22.7013 23.9264 22.699 23.5075 22.5393 23.128C22.5243 23.0923 22.5077 23.0576 22.4902 23.0235C22.487 23.0172 22.4839 23.0109 22.4807 23.0046C22.4635 22.9721 22.4452 22.9403 22.426 22.9093C22.4222 22.9032 22.4183 22.8974 22.4145 22.8914C22.3941 22.8596 22.373 22.8283 22.3504 22.7983C22.35 22.7977 22.3496 22.7972 22.3491 22.7966C22.3268 22.7669 22.3031 22.7383 22.2787 22.7104C22.2742 22.7053 22.2698 22.7001 22.2653 22.695C22.2411 22.6681 22.216 22.642 22.1899 22.6169C22.1848 22.6119 22.1797 22.6072 22.1745 22.6024C22.1473 22.5768 22.1194 22.5519 22.0903 22.5284C22.0893 22.5276 22.0883 22.5269 22.0873 22.5261C22.0588 22.5031 22.029 22.4813 21.9988 22.4603C21.9933 22.4565 21.9879 22.4526 21.9823 22.4489C21.9521 22.4285 21.921 22.4092 21.8891 22.3909C21.8865 22.3894 21.8841 22.3876 21.8814 22.3861C22.0624 22.2294 22.2054 22.0311 22.2984 21.8029C22.4538 21.4217 22.4516 21.0027 22.2919 20.6232C22.1522 20.2912 21.9066 20.0241 21.5921 19.8584C21.5472 19.8347 21.5008 19.8131 21.4532 19.7937L14.786 17.0751L17.8895 16.1146C18.6278 15.886 19.0436 15.0985 18.8164 14.3592C18.7316 14.0832 18.5635 13.8505 18.3464 13.6804C18.0232 13.4272 17.5913 13.3129 17.163 13.4028C17.161 13.4033 17.159 13.4037 17.1569 13.4042C17.1332 13.4095 14.7541 13.9445 12.2693 14.429C12.1591 14.4505 12.0517 14.4712 11.9458 14.4916C11.8611 14.5079 11.7775 14.524 11.6955 14.5396C11.672 14.5441 11.6484 14.5485 11.625 14.553C11.4803 14.5805 11.34 14.6068 11.2038 14.6321C11.1489 14.6423 11.0945 14.6524 11.041 14.6622C7.92052 15.2371 7.0439 15.2474 6.80062 15.2144C6.79968 15.2143 6.79886 15.2142 6.79792 15.214C6.79423 15.2135 6.7906 15.213 6.7872 15.2125C6.78474 15.212 6.78245 15.2116 6.78017 15.2113C6.77853 15.211 6.77677 15.2107 6.77519 15.2105C6.76001 15.2077 6.74818 15.2048 6.73904 15.2021L6.66884 15.1735L6.75632 14.959C6.84234 14.748 6.84105 14.5162 6.75275 14.3063C6.73066 14.2538 6.70376 14.2042 6.67259 14.1581C6.57907 14.0196 6.44683 13.9118 6.28863 13.8473L3.98777 12.9091C3.77689 12.8231 3.54504 12.8244 3.3351 12.9127C3.1251 13.001 2.96215 13.1658 2.87613 13.3767L0.0626416 20.2769C-0.114897 20.7123 0.0949267 21.2109 0.530336 21.3885L2.83125 22.3267C2.93631 22.3695 3.045 22.3898 3.15205 22.3898C3.48855 22.3898 3.80812 22.1893 3.94283 21.859L3.96398 21.8072L4.49449 22.0234C4.49478 22.0236 4.49507 22.0237 4.49543 22.0238C5.00285 22.2307 5.47037 22.5259 5.87501 22.8923C5.94861 22.9589 6.02009 23.0278 6.08941 23.099C6.15872 23.1702 6.22575 23.2437 6.2905 23.3193C6.32284 23.3571 6.35466 23.3955 6.38577 23.4343C6.9754 24.1695 7.74837 24.7463 8.621 25.1021L9.21784 25.3455H4.84605C4.53867 25.3455 4.28853 25.0953 4.28853 24.7879V23.704C4.28853 23.4674 4.09676 23.2756 3.86015 23.2756C3.62355 23.2756 3.43178 23.4674 3.43178 23.704V24.7879C3.43178 25.5678 4.06617 26.2022 4.84605 26.2022H11.3191L16.8375 28.4523C17.0274 28.5298 17.224 28.5665 17.4175 28.5665C18.0256 28.5665 18.6033 28.2041 18.8467 27.6071C18.9466 27.3622 18.9786 27.1063 18.9517 26.8602C19.2388 26.9014 19.5364 26.8636 19.8061 26.7471C20.0803 26.6287 20.3075 26.4401 20.4689 26.2022H28.5853C29.3651 26.2022 29.9995 25.5678 29.9995 24.7879V5.14542C29.9995 5.14484 29.9994 5.14437 29.9994 5.14378ZM14.898 2.2884H18.5332L19.0952 4.71704H14.336L14.898 2.2884ZM13.4566 4.71704H4.4874L5.43609 2.2884H14.0186L13.4566 4.71704ZM19.2058 11.6218H19.2057L17.1454 9.79659C17.0229 9.68807 16.8693 9.63381 16.7157 9.63381C16.5621 9.63381 16.4084 9.68807 16.2859 9.79659L14.2257 11.6218V5.5738H19.2058V11.6218ZM3.151 21.5318L0.857464 20.5967L3.66797 13.704L5.9615 14.6392L3.151 21.5318ZM20.2653 24.117L19.7737 23.9165C19.7734 23.9164 19.7732 23.9164 19.773 23.9162C19.7728 23.9162 19.7726 23.9161 19.7724 23.916C19.7724 23.916 19.7723 23.916 19.7723 23.916L14.652 21.8282C14.433 21.7389 14.1829 21.844 14.0936 22.0632C14.0042 22.2822 14.1094 22.5323 14.3286 22.6216L19.4489 24.7094C19.4703 24.7182 19.491 24.7278 19.511 24.7384C19.5166 24.7414 19.5218 24.7451 19.5273 24.7482C19.5414 24.7561 19.5555 24.7641 19.5688 24.7729C19.5752 24.7772 19.5811 24.7821 19.5873 24.7866C19.5991 24.795 19.6111 24.8034 19.6222 24.8125C19.6289 24.818 19.635 24.8242 19.6415 24.8299C19.6515 24.8387 19.6617 24.8473 19.6711 24.8567C19.6776 24.8631 19.6834 24.8702 19.6896 24.8769C19.6982 24.8861 19.707 24.8952 19.7151 24.905C19.7213 24.9124 19.7267 24.9203 19.7325 24.928C19.7399 24.9376 19.7475 24.947 19.7542 24.957C19.7599 24.9653 19.7648 24.9741 19.77 24.9826C19.7761 24.9924 19.7826 25.0021 19.7881 25.0122C19.7932 25.0214 19.7974 25.0309 19.802 25.0402C19.8069 25.0503 19.8123 25.0601 19.8167 25.0704C19.821 25.0802 19.8245 25.0904 19.8283 25.1004C19.8321 25.1106 19.8364 25.1205 19.8398 25.1308C19.8432 25.1412 19.8457 25.1518 19.8486 25.1623C19.8515 25.1727 19.8547 25.1829 19.8571 25.1934C19.8595 25.204 19.861 25.2147 19.863 25.2254C19.8649 25.2361 19.8671 25.2466 19.8685 25.2574C19.8699 25.2682 19.8705 25.2791 19.8713 25.2899C19.8722 25.3008 19.8735 25.3117 19.8739 25.3226C19.8742 25.3333 19.8737 25.3441 19.8736 25.3549C19.8734 25.366 19.8736 25.3772 19.8729 25.3884C19.8723 25.399 19.8707 25.4096 19.8695 25.4202C19.8683 25.4316 19.8673 25.443 19.8655 25.4544C19.8638 25.4648 19.8611 25.4752 19.859 25.4856C19.8565 25.4972 19.8545 25.5087 19.8514 25.5202C19.8487 25.5303 19.845 25.5404 19.8418 25.5505C19.8382 25.562 19.8348 25.5735 19.8306 25.5848C19.8269 25.5926 19.8233 25.6004 19.82 25.6083C19.8192 25.6101 19.8188 25.612 19.8181 25.6138C19.7512 25.7683 19.6277 25.891 19.4664 25.9607C19.2889 26.0373 19.0856 26.04 18.9086 25.9678L18.0014 25.5979C17.9972 25.5962 17.9929 25.595 17.9887 25.5934C17.9844 25.5915 17.9804 25.5893 17.9761 25.5875L13.8115 23.8894C13.5923 23.8001 13.3424 23.9052 13.2531 24.1244C13.1637 24.3435 13.2689 24.5935 13.488 24.6828L17.6526 26.3809C17.657 26.3827 17.6615 26.384 17.666 26.3857C17.6701 26.3874 17.6738 26.3896 17.678 26.3912C18.0275 26.5338 18.196 26.9341 18.0535 27.2836C17.9109 27.6332 17.5108 27.8018 17.1611 27.6591L11.5657 25.3776C11.5655 25.3775 11.5652 25.3773 11.565 25.3772L8.94468 24.3088C8.48343 24.1207 8.05511 23.8596 7.677 23.5385C7.45013 23.3458 7.24136 23.1315 7.05433 22.8983C6.87005 22.6686 6.6679 22.4543 6.4504 22.2573C5.97187 21.8242 5.41904 21.4751 4.8191 21.2304C4.81904 21.2304 4.81898 21.2304 4.81892 21.2304L4.28771 21.0138L5.34574 18.419L6.34558 15.9669L6.41935 15.997C6.48878 16.0253 6.5878 16.0655 6.85429 16.0755C7.18722 16.0906 7.738 16.0559 8.72471 15.9165C9.3959 15.8217 10.2192 15.6845 11.1803 15.5077C11.204 15.5034 11.2275 15.499 11.2514 15.4946C11.2963 15.4863 11.3417 15.4779 11.3873 15.4694C11.4228 15.4629 11.4584 15.4562 11.4943 15.4495C11.5352 15.4418 11.5763 15.4341 11.6177 15.4263C11.6615 15.4181 11.706 15.4097 11.7506 15.4012C11.7863 15.3944 11.822 15.3876 11.8581 15.3808C11.9126 15.3704 11.9679 15.3598 12.0235 15.3492C12.0521 15.3436 12.0804 15.3383 12.1092 15.3327C12.1943 15.3163 12.2805 15.2997 12.3682 15.2826C14.8445 14.801 17.2345 14.2649 17.3419 14.2408C17.3526 14.2386 17.3634 14.2373 17.3741 14.2357C17.6492 14.195 17.9188 14.3541 17.9977 14.6109C18.0255 14.7011 18.0287 14.7932 18.0112 14.8798C17.9728 15.0704 17.8343 15.2348 17.6363 15.2961L13.3894 16.6106C13.2164 16.6641 13.0959 16.8204 13.0881 17.0012C13.0802 17.182 13.1867 17.3482 13.3543 17.4165L21.1299 20.5871C21.2993 20.6561 21.4316 20.7869 21.5025 20.9555C21.5734 21.1241 21.5744 21.3102 21.5053 21.4795C21.4363 21.6488 21.3055 21.7811 21.1369 21.852C21.0526 21.8874 20.964 21.9053 20.8752 21.9058C20.8739 21.9058 20.8726 21.9057 20.8714 21.9057C20.8505 21.9057 20.8297 21.9048 20.8089 21.9029C20.8027 21.9023 20.7966 21.901 20.7905 21.9003C20.7746 21.8984 20.7587 21.8966 20.743 21.8935C20.733 21.8916 20.7232 21.8887 20.7133 21.8863C20.7014 21.8835 20.6895 21.8811 20.6778 21.8777C20.6657 21.8741 20.6538 21.8693 20.6418 21.8651C20.6323 21.8617 20.6227 21.8588 20.6133 21.855L15.4925 19.767C15.2734 19.6776 15.0234 19.7828 14.9341 20.002C14.8447 20.221 14.9499 20.4711 15.169 20.5604L21.3773 23.0918C21.4197 23.1091 21.4597 23.1302 21.497 23.1548C21.609 23.2286 21.6967 23.3338 21.7498 23.4603C21.8119 23.6077 21.8205 23.7686 21.7753 23.92C21.7689 23.9416 21.7613 23.9631 21.7527 23.9842C21.7438 24.0061 21.7339 24.0272 21.7231 24.0476C21.6978 24.0951 21.6671 24.138 21.6327 24.177C21.6114 24.2013 21.5886 24.2239 21.5643 24.2447C21.5605 24.2479 21.557 24.2517 21.553 24.2549C21.3967 24.3827 21.1877 24.4377 20.9835 24.3964C20.9421 24.388 20.9009 24.3761 20.8603 24.3596L20.2653 24.117Z" fill="currentColor" stroke="currentColor" stroke-width="0.4"/>
</g>
</g>
<defs>
<clipPath id="clip0">
<rect width="30" height="30" fill="white"/>
</clipPath>
</defs>
</svg>
