<svg width="43" height="48" viewBox="0 0 43 48" fill="currentColor" xmlns="http://www.w3.org/2000/svg">
<path d="M42.6972 29.1417L39.313 22.5427C39.1517 22.2283 38.8264 22.0303 38.471 22.0303H21.4001H4.32906C3.97362 22.0303 3.64832 22.2283 3.48705 22.5427L0.102825 29.1417C-0.0462665 29.4325 -0.0324721 29.7793 0.139295 30.0575C0.311061 30.3357 0.616141 30.5052 0.944746 30.5052H2.12406V47.0619C2.12406 47.5798 2.54705 47.9999 3.06887 47.9999H39.7282C40.25 47.9999 40.673 47.5798 40.673 47.0619V30.5053H41.8551C42.1838 30.5053 42.4889 30.3357 42.6605 30.0576C42.8325 29.7793 42.8463 29.4325 42.6972 29.1417ZM37.8918 23.9062L40.314 28.6292H25.3635L22.9413 23.9062H37.8918ZM4.90832 23.9062H19.8588L17.4366 28.6292H2.48611L4.90832 23.9062ZM38.7836 46.1239H22.3449V40.9254C22.3449 40.4075 21.9219 39.9875 21.4001 39.9875C20.8783 39.9875 20.4553 40.4075 20.4553 40.9254V46.1239H4.01387V30.5053H18.0159C18.3713 30.5053 18.6966 30.3074 18.8579 29.9929L20.4553 26.878V32.5026C20.4553 33.0205 20.8783 33.4406 21.4001 33.4406C21.9219 33.4406 22.3449 33.0205 22.3449 32.5026V26.878L23.9423 29.9929C24.1036 30.3074 24.4289 30.5053 24.7843 30.5053H38.7836V46.1239Z" fill="currentColor"/>
<path d="M13.3209 40.9873H7.94091C7.41909 40.9873 6.99609 41.4073 6.99609 41.9253C6.99609 42.4432 7.41909 42.8632 7.94091 42.8632H13.3209C13.8427 42.8632 14.2657 42.4432 14.2657 41.9253C14.2657 41.4073 13.8427 40.9873 13.3209 40.9873Z" fill="currentColor"/>
<path d="M21.3995 19.2722C26.7456 19.2722 31.0951 14.9489 31.0951 9.6348C31.095 4.32215 26.7456 0 21.3995 0C16.0518 0 11.7012 4.32215 11.7012 9.6348C11.7012 14.9489 16.0517 19.2722 21.3995 19.2722ZM21.3995 1.87593C25.7037 1.87593 29.2055 5.35654 29.2055 9.6348C29.2055 13.9146 25.7037 17.3963 21.3995 17.3963C17.0938 17.3963 13.5908 13.9146 13.5908 9.6348C13.5908 5.35654 17.0937 1.87593 21.3995 1.87593Z" fill="currentColor"/>
<path d="M17.1639 11.0411L19.6787 13.1573C19.85 13.3015 20.0668 13.3798 20.2897 13.3798C20.3165 13.3798 20.3434 13.3787 20.3703 13.3764C20.6211 13.3551 20.8529 13.2354 21.0143 13.0437L25.7469 7.42851C26.0817 7.03128 26.0287 6.4397 25.6286 6.10719C25.2284 5.77497 24.6326 5.8274 24.2977 6.22472L20.1753 11.1159L18.386 9.61003C17.9879 9.27508 17.3916 9.32367 17.0543 9.71902C16.7168 10.1143 16.7659 10.706 17.1639 11.0411Z" fill="currentColor"/>
<path d="M2.83934 10.5732H6.92716C7.44898 10.5732 7.87197 10.1532 7.87197 9.63523C7.87197 9.11729 7.44898 8.69727 6.92716 8.69727H2.83934C2.31752 8.69727 1.89453 9.11729 1.89453 9.63523C1.89453 10.1532 2.31752 10.5732 2.83934 10.5732Z" fill="currentColor"/>
<path d="M2.39874 4.04609L6.48657 6.18644C6.62715 6.26007 6.77785 6.29496 6.92656 6.29496C7.26575 6.29496 7.59379 6.11309 7.7631 5.79437C8.00648 5.33617 7.82971 4.7688 7.36817 4.52718L3.28025 2.38683C2.8189 2.14521 2.2472 2.32061 2.00381 2.7789C1.76043 3.2371 1.9372 3.80447 2.39874 4.04609Z" fill="currentColor"/>
<path d="M2.00161 16.4904C2.17082 16.8093 2.49886 16.9915 2.83833 16.9915C2.98676 16.9915 3.13746 16.9567 3.27786 16.8832L7.36568 14.7456C7.82731 14.5042 8.00447 13.9369 7.76127 13.4786C7.51808 13.0202 6.94666 12.8444 6.48502 13.0858L2.3972 15.2234C1.93556 15.4648 1.75851 16.0321 2.00161 16.4904Z" fill="currentColor"/>
<path d="M35.8706 10.5732H39.9584C40.4802 10.5732 40.9032 10.1532 40.9032 9.63523C40.9032 9.11729 40.4802 8.69727 39.9584 8.69727H35.8706C35.3488 8.69727 34.9258 9.11729 34.9258 9.63523C34.9258 10.1532 35.3488 10.5732 35.8706 10.5732Z" fill="currentColor"/>
<path d="M35.8715 6.29503C36.0201 6.29503 36.1709 6.26014 36.3115 6.18651L40.3993 4.04616C40.8609 3.80454 41.0376 3.23716 40.7943 2.77896C40.5508 2.32077 39.9794 2.14509 39.5178 2.38689L35.43 4.52724C34.9685 4.76886 34.7917 5.33624 35.0351 5.79443C35.2044 6.11316 35.5322 6.29503 35.8715 6.29503Z" fill="currentColor"/>
<path d="M35.4304 14.7457L39.5183 16.8833C39.6588 16.9567 39.8094 16.9915 39.9578 16.9915C40.2973 16.9915 40.6253 16.8095 40.7945 16.4905C41.0377 16.0322 40.8606 15.4649 40.3989 15.2235L36.3111 13.0858C35.8494 12.8444 35.278 13.0202 35.0349 13.4787C34.7917 13.9369 34.9688 14.5042 35.4304 14.7457Z" fill="currentColor"/>
<path d="M21.4018 35.7764C20.88 35.7764 20.457 36.1964 20.457 36.7143V36.7197C20.457 37.2376 20.88 37.655 21.4018 37.655C21.9237 37.655 22.3467 37.2324 22.3467 36.7144C22.3467 36.1965 21.9237 35.7764 21.4018 35.7764Z" fill="currentColor"/>
</svg>
