<svg width="30" height="32" viewBox="0 0 30 32" fill="none" xmlns="http://www.w3.org/2000/svg">
<path fill-rule="evenodd" clip-rule="evenodd" d="M22.4362 12.5918C22.4261 12.5504 22.4115 12.5097 22.3938 12.4702C22.3177 12.3063 22.1722 12.1839 22.0018 12.1382L15.5415 8.95608C15.3744 8.87402 15.1678 8.87402 15.001 8.95608L8.45579 12.1775C8.24974 12.277 8.11515 12.4849 8.10501 12.72L8.10449 20.8332C8.10449 21.0741 8.24272 21.2962 8.45475 21.3989L14.9766 24.6087L14.9867 24.6185L15.021 24.6301L15.0668 24.661H15.1024L15.1354 24.6776H15.1658L15.1855 24.6839H15.226L15.2285 24.6841C15.2445 24.6854 15.2597 24.6866 15.2736 24.6866C15.2884 24.6866 15.3105 24.6866 15.3365 24.6831C15.3567 24.6826 15.3783 24.6792 15.3999 24.6736L15.424 24.6673L15.4294 24.6656L15.4368 24.6633H15.4461L15.4861 24.647C15.4963 24.6438 15.5121 24.6375 15.5311 24.6285C15.5412 24.6246 15.5514 24.6195 15.5615 24.6129L22.1119 21.3881C22.3237 21.2836 22.4609 21.0614 22.4609 20.8237V12.6042L22.4362 12.5918ZM14.6491 16.3685V23.0518L9.33887 20.4377V13.7539L14.6491 16.3685ZM18.1291 15.2631L15.8867 16.3681V23.0514L21.2167 20.4244V13.7404L19.3656 14.652V18.0964C19.3656 18.4431 19.0884 18.7239 18.7478 18.7239C18.4063 18.7239 18.1291 18.4429 18.1291 18.0964V15.2631ZM13.7188 10.9818L15.2684 10.2177L20.4048 12.7465L18.8552 13.5107L13.7188 10.9818ZM15.2682 15.2757L17.4379 14.2082L12.302 11.6791L10.1318 12.7472L15.2682 15.2757Z" fill="#1E81F8"/>
<path d="M22.3938 12.4702L22.5765 12.3886L22.5752 12.3859L22.3938 12.4702ZM22.4362 12.5918L22.2419 12.6393L22.2639 12.729L22.3464 12.7705L22.4362 12.5918ZM22.0018 12.1382L21.9134 12.3176L21.931 12.3263L21.95 12.3314L22.0018 12.1382ZM15.5415 8.95608L15.6299 8.77666L15.6297 8.77656L15.5415 8.95608ZM15.001 8.95608L14.9127 8.77662L14.9127 8.77663L15.001 8.95608ZM8.45579 12.1775L8.54274 12.3576L8.54411 12.357L8.45579 12.1775ZM8.10501 12.72L7.90501 12.7114L7.90501 12.72L8.10501 12.72ZM8.10449 20.8332L7.90449 20.8331V20.8332H8.10449ZM8.45475 21.3989L8.54307 21.2194L8.54189 21.2189L8.45475 21.3989ZM14.9766 24.6087L15.1154 24.4647L15.0929 24.443L15.0649 24.4293L14.9766 24.6087ZM14.9867 24.6185L14.848 24.7625L14.8802 24.7936L14.9226 24.8079L14.9867 24.6185ZM15.021 24.6301L15.1329 24.4643L15.1106 24.4493L15.0852 24.4407L15.021 24.6301ZM15.0668 24.661L14.9549 24.8267L15.0056 24.861H15.0668V24.661ZM15.1024 24.661L15.1923 24.4823L15.1499 24.461H15.1024V24.661ZM15.1354 24.6776L15.0454 24.8562L15.0878 24.8776H15.1354V24.6776ZM15.1658 24.6776L15.2268 24.4871L15.197 24.4776H15.1658V24.6776ZM15.1855 24.6839L15.1244 24.8744L15.1542 24.8839H15.1855V24.6839ZM15.226 24.6839L15.2416 24.4845L15.2338 24.4839H15.226V24.6839ZM15.2285 24.6841L15.2441 24.4847L15.244 24.4847L15.2285 24.6841ZM15.3365 24.6831L15.3313 24.4832L15.3207 24.4835L15.3103 24.4848L15.3365 24.6831ZM15.3999 24.6736L15.4496 24.8673L15.4506 24.8671L15.3999 24.6736ZM15.424 24.6673L15.4748 24.861L15.484 24.8581L15.424 24.6673ZM15.4294 24.6656L15.3705 24.4745L15.3694 24.4748L15.4294 24.6656ZM15.4368 24.6633V24.4633H15.4067L15.3779 24.4722L15.4368 24.6633ZM15.4461 24.6633V24.8633H15.4854L15.5218 24.8485L15.4461 24.6633ZM15.4861 24.647L15.4265 24.4561L15.4183 24.4586L15.4105 24.4619L15.4861 24.647ZM15.5311 24.6285L15.4582 24.4418L15.4456 24.4477L15.5311 24.6285ZM15.5615 24.6129L15.4732 24.4335L15.4624 24.4388L15.4524 24.4453L15.5615 24.6129ZM22.1119 21.3881L22.2003 21.5675L22.2004 21.5674L22.1119 21.3881ZM22.4609 12.6042H22.6609V12.4809L22.5507 12.4255L22.4609 12.6042ZM14.6491 23.0518L14.5608 23.2312L14.8491 23.3732V23.0518H14.6491ZM14.6491 16.3685H14.8491V16.2441L14.7375 16.1891L14.6491 16.3685ZM9.33887 20.4377H9.13887V20.5622L9.25054 20.6172L9.33887 20.4377ZM9.33887 13.7539L9.42721 13.5745L9.13887 13.4325V13.7539H9.33887ZM15.8867 16.3681L15.7983 16.1887L15.6867 16.2437V16.3681H15.8867ZM18.1291 15.2631H18.3291V14.9416L18.0407 15.0837L18.1291 15.2631ZM15.8867 23.0514H15.6867V23.373L15.9751 23.2308L15.8867 23.0514ZM21.2167 20.4244L21.3051 20.6038L21.4167 20.5488V20.4244H21.2167ZM21.2167 13.7404H21.4167V13.4189L21.1283 13.5609L21.2167 13.7404ZM19.3656 14.652L19.2773 14.4726L19.1656 14.5275V14.652H19.3656ZM15.2684 10.2177L15.3567 10.0383L15.2683 9.99475L15.18 10.0383L15.2684 10.2177ZM13.7188 10.9818L13.6303 10.8025L13.2662 10.982L13.6304 11.1613L13.7188 10.9818ZM20.4048 12.7465L20.4933 12.9259L20.8573 12.7464L20.4932 12.5671L20.4048 12.7465ZM18.8552 13.5107L18.7668 13.6901L18.8552 13.7336L18.9436 13.6901L18.8552 13.5107ZM17.4379 14.2082L17.5262 14.3876L17.8907 14.2082L17.5262 14.0287L17.4379 14.2082ZM15.2682 15.2757L15.1799 15.4552L15.2682 15.4986L15.3565 15.4552L15.2682 15.2757ZM12.302 11.6791L12.3903 11.4997L12.302 11.4562L12.2137 11.4996L12.302 11.6791ZM10.1318 12.7472L10.0435 12.5677L9.67897 12.7472L10.0435 12.9266L10.1318 12.7472ZM22.2112 12.5517C22.2248 12.5822 22.2351 12.6114 22.2419 12.6393L22.6305 12.5443C22.617 12.4893 22.5982 12.4373 22.5765 12.3886L22.2112 12.5517ZM21.95 12.3314C22.0624 12.3615 22.1609 12.4435 22.2125 12.5544L22.5752 12.3859C22.4745 12.1691 22.282 12.0062 22.0535 11.945L21.95 12.3314ZM15.4531 9.13549L21.9134 12.3176L22.0901 11.9588L15.6299 8.77666L15.4531 9.13549ZM15.0893 9.13554C15.2004 9.08088 15.3418 9.08082 15.4533 9.13559L15.6297 8.77656C15.407 8.66721 15.1353 8.66715 14.9127 8.77662L15.0893 9.13554ZM8.54411 12.357L15.0893 9.13552L14.9127 8.77663L8.36747 11.9981L8.54411 12.357ZM8.30483 12.7286C8.31189 12.5646 8.40522 12.424 8.54274 12.3576L8.36884 11.9974C8.09426 12.13 7.9184 12.4052 7.9052 12.7114L8.30483 12.7286ZM8.30449 20.8332L8.30501 12.72L7.90501 12.72L7.90449 20.8331L8.30449 20.8332ZM8.54189 21.2189C8.40029 21.1503 8.30449 20.999 8.30449 20.8332H7.90449C7.90449 21.1492 8.08516 21.4422 8.3676 21.5789L8.54189 21.2189ZM15.0649 24.4293L8.54307 21.2194L8.36643 21.5783L14.8883 24.7882L15.0649 24.4293ZM15.1255 24.4744L15.1154 24.4647L14.8378 24.7528L14.848 24.7625L15.1255 24.4744ZM15.0852 24.4407L15.0509 24.429L14.9226 24.8079L14.9569 24.8195L15.0852 24.4407ZM15.1787 24.4952L15.1329 24.4643L14.9091 24.7959L14.9549 24.8267L15.1787 24.4952ZM15.1024 24.461H15.0668V24.861H15.1024V24.461ZM15.2253 24.499L15.1923 24.4823L15.0124 24.8396L15.0454 24.8562L15.2253 24.499ZM15.1658 24.4776H15.1354V24.8776H15.1658V24.4776ZM15.2466 24.4935L15.2268 24.4871L15.1047 24.868L15.1244 24.8744L15.2466 24.4935ZM15.226 24.4839H15.1855V24.8839H15.226V24.4839ZM15.244 24.4847L15.2416 24.4845L15.2105 24.8833L15.2129 24.8835L15.244 24.4847ZM15.2736 24.4866C15.2691 24.4866 15.2621 24.4861 15.2441 24.4847L15.2128 24.8835C15.2269 24.8846 15.2504 24.8866 15.2736 24.8866V24.4866ZM15.3103 24.4848C15.2984 24.4864 15.2877 24.4866 15.2736 24.4866V24.8866C15.2891 24.8866 15.3226 24.8867 15.3626 24.8814L15.3103 24.4848ZM15.3501 24.4799C15.3398 24.4826 15.3334 24.4831 15.3313 24.4832L15.3417 24.8831C15.3801 24.8821 15.4169 24.8758 15.4496 24.8673L15.3501 24.4799ZM15.3733 24.4738L15.3492 24.4802L15.4506 24.8671L15.4747 24.8608L15.3733 24.4738ZM15.3694 24.4748L15.364 24.4765L15.484 24.8581L15.4894 24.8564L15.3694 24.4748ZM15.3779 24.4722L15.3705 24.4745L15.4883 24.8567L15.4957 24.8545L15.3779 24.4722ZM15.4461 24.4633H15.4368V24.8633H15.4461V24.4633ZM15.4105 24.4619L15.3704 24.4782L15.5218 24.8485L15.5618 24.8321L15.4105 24.4619ZM15.4456 24.4477C15.439 24.4508 15.4337 24.4531 15.4298 24.4547C15.4254 24.4565 15.4245 24.4567 15.4265 24.4561L15.5458 24.8379C15.5682 24.8309 15.5933 24.8203 15.6166 24.8093L15.4456 24.4477ZM15.4524 24.4453C15.4548 24.4438 15.457 24.4427 15.4583 24.4422L15.6038 24.8148C15.6255 24.8064 15.6479 24.7953 15.6706 24.7806L15.4524 24.4453ZM22.0236 21.2086L15.4732 24.4335L15.6498 24.7924L22.2003 21.5675L22.0236 21.2086ZM22.2609 20.8237C22.2609 20.9861 22.1662 21.1383 22.0234 21.2087L22.2004 21.5674C22.4812 21.4289 22.6609 21.1367 22.6609 20.8237H22.2609ZM22.2609 12.6042V20.8237H22.6609V12.6042H22.2609ZM22.3464 12.7705L22.3711 12.7829L22.5507 12.4255L22.526 12.4131L22.3464 12.7705ZM14.8491 23.0518V16.3685H14.4491V23.0518H14.8491ZM9.25054 20.6172L14.5608 23.2312L14.7374 22.8724L9.4272 20.2583L9.25054 20.6172ZM9.13887 13.7539V20.4377H9.53887V13.7539H9.13887ZM14.7375 16.1891L9.42721 13.5745L9.25052 13.9334L14.5608 16.5479L14.7375 16.1891ZM15.9751 16.5475L18.2175 15.4425L18.0407 15.0837L15.7983 16.1887L15.9751 16.5475ZM16.0867 23.0514V16.3681H15.6867V23.0514H16.0867ZM21.1283 20.245L15.7983 22.872L15.9751 23.2308L21.3051 20.6038L21.1283 20.245ZM21.0167 13.7404V20.4244H21.4167V13.7404H21.0167ZM19.454 14.8314L21.3051 13.9198L21.1283 13.5609L19.2773 14.4726L19.454 14.8314ZM19.5656 18.0964V14.652H19.1656V18.0964H19.5656ZM18.7478 18.9239C19.2016 18.9239 19.5656 18.5508 19.5656 18.0964H19.1656C19.1656 18.3354 18.9752 18.5239 18.7478 18.5239V18.9239ZM17.9291 18.0964C17.9291 18.5507 18.2933 18.9239 18.7478 18.9239V18.5239C18.5194 18.5239 18.3291 18.335 18.3291 18.0964H17.9291ZM17.9291 15.2631V18.0964H18.3291V15.2631H17.9291ZM15.18 10.0383L13.6303 10.8025L13.8072 11.1612L15.3569 10.3971L15.18 10.0383ZM20.4932 12.5671L15.3567 10.0383L15.1801 10.3971L20.3165 12.926L20.4932 12.5671ZM18.9436 13.6901L20.4933 12.9259L20.3164 12.5672L18.7667 13.3313L18.9436 13.6901ZM13.6304 11.1613L18.7668 13.6901L18.9435 13.3312L13.8071 10.8024L13.6304 11.1613ZM17.3496 14.0287L15.1799 15.0963L15.3565 15.4552L17.5262 14.3876L17.3496 14.0287ZM12.2136 11.8585L17.3495 14.3876L17.5262 14.0287L12.3903 11.4997L12.2136 11.8585ZM10.2202 12.9266L12.3903 11.8585L12.2137 11.4996L10.0435 12.5677L10.2202 12.9266ZM15.3566 15.0963L10.2202 12.5677L10.0435 12.9266L15.1799 15.4552L15.3566 15.0963Z" fill="#1E81F8"/>
<path d="M12.0926 1.164C11.7601 1.43083 11.9026 1.75961 12.525 2.17417C13.1664 2.60301 13.1759 2.56489 12.4157 2.69831C9.14698 3.2701 5.79272 5.42386 3.64049 8.33047C3.0276 9.16434 2.91357 9.56936 3.25565 9.75043C3.61198 9.94579 3.81153 9.86478 4.12985 9.39782C6.06353 6.53885 8.71938 4.68529 12.1497 3.78948C13.3374 3.47976 13.3659 3.49405 12.8671 4.15638C12.4347 4.72817 12.3872 4.97595 12.658 5.22373C13.0096 5.53822 13.2376 5.38574 14.0263 4.27551C15.1381 2.7126 15.1381 2.79361 14.0216 2.00739C12.3825 0.854277 12.4442 0.878101 12.0926 1.164Z" fill="#1E81F8" stroke="#1E81F8" stroke-width="0.4"/>
<path d="M19.5611 3.46117C19.1716 3.89002 19.7464 4.50469 20.2358 4.18068C20.4829 4.01867 20.5399 3.58506 20.3451 3.3897C20.1693 3.21339 19.7464 3.25151 19.5611 3.46117Z" fill="#1E81F8" stroke="#1E81F8" stroke-width="0.4"/>
<path d="M21.8239 4.5718C21.5008 5.06735 22.1232 5.61532 22.5603 5.2246C22.7884 5.01494 22.7931 4.68616 22.5651 4.48127C22.3133 4.25255 22.0092 4.2859 21.8239 4.5718Z" fill="#1E81F8" stroke="#1E81F8" stroke-width="0.4"/>
<path d="M23.8964 5.96185C23.5021 6.35735 24.0342 7.06256 24.4998 6.7576C24.8276 6.54318 24.8799 6.36687 24.6946 6.08574C24.5235 5.82844 24.0959 5.76173 23.8964 5.96185Z" fill="#1E81F8" stroke="#1E81F8" stroke-width="0.4"/>
<path d="M25.6392 7.80705C25.2354 8.21683 25.739 8.88392 26.2379 8.60279C26.5419 8.43125 26.6084 8.08818 26.3899 7.8404C26.1856 7.62121 25.8435 7.60692 25.6392 7.80705Z" fill="#1E81F8" stroke="#1E81F8" stroke-width="0.4"/>
<path d="M27.1297 9.81735C26.8018 9.95077 26.8066 10.2224 27.1582 10.9705C28.5407 13.9247 28.8163 17.3269 27.9183 20.4765C27.6808 21.3009 26.5405 23.7596 26.1699 24.2313L25.9894 24.46L25.9229 23.6452C25.8326 22.5636 25.5143 22.1967 25.0154 22.6017L24.7969 22.778L24.9584 24.1074C25.215 26.2612 25.0534 26.1182 27.0014 25.8752C28.5502 25.6894 28.745 25.6036 28.7023 25.1652C28.6595 24.7364 28.4695 24.6649 27.6618 24.7793C26.8066 24.9032 26.8351 24.927 27.2294 24.3695C29.7855 20.772 30.1513 14.6871 28.0561 10.5178C27.676 9.76017 27.5335 9.65534 27.1297 9.81735Z" fill="#1E81F8" stroke="#1E81F8" stroke-width="0.4"/>
<path d="M2.47639 10.3371C2.26734 10.4562 2.25784 10.928 2.45738 11.1329C2.7662 11.4378 3.28407 11.2139 3.28407 10.7755C3.28407 10.3038 2.89448 10.0893 2.47639 10.3371Z" fill="#1E81F8" stroke="#1E81F8" stroke-width="0.4"/>
<path d="M1.48847 12.8574C1.1654 13.3482 1.78304 13.9057 2.21539 13.5149C2.42443 13.3291 2.46244 12.905 2.28665 12.7287C2.08236 12.5238 1.65951 12.5953 1.48847 12.8574Z" fill="#1E81F8" stroke="#1E81F8" stroke-width="0.4"/>
<path d="M1.12605 15.278C0.774473 15.664 1.22107 16.2787 1.69618 16.0595C1.9955 15.9261 2.07627 15.6116 1.88622 15.3257C1.70093 15.0398 1.35885 15.0207 1.12605 15.278Z" fill="#1E81F8" stroke="#1E81F8" stroke-width="0.4"/>
<path d="M1.28236 17.6367C1.04956 17.7272 0.959292 18.1465 1.12083 18.3943C1.30612 18.6802 1.78123 18.704 1.92376 18.4324C2.18982 17.9368 1.78123 17.4318 1.28236 17.6367Z" fill="#1E81F8" stroke="#1E81F8" stroke-width="0.4"/>
<path d="M2.46561 22.1263C2.13303 22.498 1.50114 25.0806 1.69118 25.295C2.03801 25.6762 2.50837 25.5094 2.63189 24.9567C2.6699 24.7995 2.74117 24.5088 2.79343 24.3039L2.88845 23.9418L3.44433 24.7804C5.39702 27.7442 8.70376 29.9647 12.2623 30.6985L13.0652 30.8652L13.2458 30.6413C13.6259 30.1696 13.4026 29.9027 12.4761 29.7121C9.06009 29.0069 6.10493 26.9675 4.03346 23.8846C3.58211 23.2175 3.58211 23.2175 4.41355 23.4796C5.23073 23.7369 5.50154 23.7273 5.69158 23.4319C5.91013 23.0936 5.68683 22.7601 5.13571 22.6219C4.91241 22.5647 4.28052 22.3884 3.72939 22.2359C2.54638 21.9024 2.6604 21.9119 2.46561 22.1263Z" fill="#1E81F8" stroke="#1E81F8" stroke-width="0.4"/>
<path d="M21.5467 28.4783C21.3709 28.7451 21.4706 29.0263 21.7985 29.2026C22.2308 29.4361 22.6917 28.7118 22.3401 28.3592C22.1405 28.1591 21.7129 28.221 21.5467 28.4783Z" fill="#1E81F8" stroke="#1E81F8" stroke-width="0.4"/>
<path d="M19.4354 29.3161C18.9413 29.5544 19.2596 30.4597 19.768 30.2739C20.2288 30.1119 20.3334 29.6068 19.9628 29.3447C19.7205 29.1732 19.7205 29.1732 19.4354 29.3161Z" fill="#1E81F8" stroke="#1E81F8" stroke-width="0.4"/>
<path d="M16.8791 29.9829C16.4468 30.5404 17.0739 31.1742 17.568 30.6786C17.9054 30.3403 17.7106 29.8638 17.2307 29.8638C17.0882 29.8638 16.9266 29.9162 16.8791 29.9829Z" fill="#1E81F8" stroke="#1E81F8" stroke-width="0.4"/>
<path d="M14.3771 30.1499C14.1396 30.3882 14.1348 30.6455 14.3629 30.8504C14.5909 31.0553 14.8807 31.0505 15.0755 30.8313C15.5269 30.3358 14.8522 29.6734 14.3771 30.1499Z" fill="#1E81F8" stroke="#1E81F8" stroke-width="0.4"/>
</svg>
