<svg width="30" height="31" viewBox="0 0 30 31" fill="none" xmlns="http://www.w3.org/2000/svg">
<g clip-path="url(#clip0_221_24)">
<path d="M15.3092 0.630981C6.9338 0.630981 0.167236 7.38978 0.167236 15.7729C0.167236 24.1561 6.92623 30.9149 15.3092 30.9149C23.6922 30.9149 30.4511 24.1561 30.4511 15.7729C30.4511 7.38978 23.6846 0.630981 15.3092 0.630981ZM15.3092 28.8903C8.04232 28.8903 2.19185 23.0398 2.19185 15.7729C2.19185 8.50593 8.04232 2.65547 15.3092 2.65547C22.5761 2.65547 28.4265 8.50593 28.4265 15.7729C28.4265 23.0398 22.5761 28.8903 15.3092 28.8903Z" fill="black" stroke="black" stroke-width="0.00630915"/>
<path d="M22.5761 11.3315C22.1754 10.931 21.5672 10.931 21.1597 11.3314L13.3925 19.0987L9.4587 15.165C9.05806 14.7648 8.44987 14.7648 8.04229 15.165C7.64166 15.5653 7.64166 16.1734 8.04229 16.5814L12.6839 21.2233C12.8839 21.4235 13.0839 21.5235 13.3925 21.5235C13.6921 21.5235 13.9004 21.4235 14.1004 21.2233L22.5761 12.7479C22.9761 12.3476 22.9761 11.7395 22.5761 11.3315Z" fill="black" stroke="black" stroke-width="0.00630915"/>
</g>
<defs>
<clipPath id="clip0_221_24">
<rect width="30" height="31" fill="white"/>
</clipPath>
</defs>
</svg>
