<svg width="95" height="18" viewBox="0 0 95 18" fill="none" xmlns="http://www.w3.org/2000/svg">
<path d="M0.944 17V1.112H8.096C9.792 1.112 11.128 1.576 12.104 2.504C13.08 3.416 13.568 4.656 13.568 6.224C13.568 7.792 13.08 9.04 12.104 9.968C11.128 10.88 9.792 11.336 8.096 11.336H2.744V17H0.944ZM2.744 9.656H7.976C9.224 9.656 10.168 9.352 10.808 8.744C11.448 8.136 11.768 7.296 11.768 6.224C11.768 5.168 11.448 4.336 10.808 3.728C10.168 3.12 9.224 2.816 7.976 2.816H2.744V9.656ZM18.4143 17V1.112H26.0223C27.6543 1.112 28.9503 1.56 29.9103 2.456C30.8863 3.352 31.3743 4.56 31.3743 6.08C31.3743 7.104 31.1743 7.92 30.7743 8.528C30.3903 9.136 29.9023 9.6 29.3103 9.92C28.7183 10.224 28.1263 10.448 27.5343 10.592L31.7103 17H29.5743L25.7343 10.904H20.2143V17H18.4143ZM20.2143 9.2H25.7103C26.2863 9.2 26.8703 9.112 27.4623 8.936C28.0543 8.76 28.5503 8.448 28.9503 8C29.3663 7.536 29.5743 6.896 29.5743 6.08C29.5743 5.072 29.2303 4.28 28.5423 3.704C27.8543 3.112 26.9423 2.816 25.8063 2.816H20.2143V9.2ZM43.925 17.192C42.725 17.192 41.629 16.984 40.637 16.568C39.645 16.152 38.789 15.568 38.069 14.816C37.365 14.064 36.821 13.2 36.437 12.224C36.053 11.232 35.861 10.176 35.861 9.056C35.861 7.92 36.053 6.864 36.437 5.888C36.821 4.912 37.365 4.048 38.069 3.296C38.789 2.544 39.645 1.96 40.637 1.544C41.629 1.128 42.725 0.92 43.925 0.92C45.125 0.92 46.221 1.128 47.213 1.544C48.205 1.96 49.053 2.544 49.757 3.296C50.477 4.048 51.029 4.912 51.413 5.888C51.797 6.864 51.989 7.92 51.989 9.056C51.989 10.176 51.797 11.232 51.413 12.224C51.029 13.2 50.477 14.064 49.757 14.816C49.053 15.568 48.205 16.152 47.213 16.568C46.221 16.984 45.125 17.192 43.925 17.192ZM43.925 15.44C45.221 15.44 46.333 15.16 47.261 14.6C48.205 14.024 48.925 13.256 49.421 12.296C49.933 11.32 50.189 10.24 50.189 9.056C50.189 7.856 49.933 6.776 49.421 5.816C48.925 4.856 48.205 4.096 47.261 3.536C46.333 2.96 45.221 2.672 43.925 2.672C42.645 2.672 41.533 2.96 40.589 3.536C39.645 4.096 38.917 4.856 38.405 5.816C37.909 6.776 37.661 7.856 37.661 9.056C37.661 10.24 37.909 11.32 38.405 12.296C38.917 13.256 39.645 14.024 40.589 14.6C41.533 15.16 42.645 15.44 43.925 15.44ZM57.269 17V1.112H59.357L65.045 8.648L70.637 1.112H72.725V17H70.925V3.848L65.045 11.408L59.069 3.848V17H57.269ZM86.0609 17.192C84.8609 17.192 83.7649 16.984 82.7729 16.568C81.7809 16.152 80.9249 15.568 80.2049 14.816C79.5009 14.064 78.9569 13.2 78.5729 12.224C78.1889 11.232 77.9969 10.176 77.9969 9.056C77.9969 7.92 78.1889 6.864 78.5729 5.888C78.9569 4.912 79.5009 4.048 80.2049 3.296C80.9249 2.544 81.7809 1.96 82.7729 1.544C83.7649 1.128 84.8609 0.92 86.0609 0.92C87.2609 0.92 88.3569 1.128 89.3489 1.544C90.3409 1.96 91.1889 2.544 91.8929 3.296C92.6129 4.048 93.1649 4.912 93.5489 5.888C93.9329 6.864 94.1249 7.92 94.1249 9.056C94.1249 10.176 93.9329 11.232 93.5489 12.224C93.1649 13.2 92.6129 14.064 91.8929 14.816C91.1889 15.568 90.3409 16.152 89.3489 16.568C88.3569 16.984 87.2609 17.192 86.0609 17.192ZM86.0609 15.44C87.3569 15.44 88.4689 15.16 89.3969 14.6C90.3409 14.024 91.0609 13.256 91.5569 12.296C92.0689 11.32 92.3249 10.24 92.3249 9.056C92.3249 7.856 92.0689 6.776 91.5569 5.816C91.0609 4.856 90.3409 4.096 89.3969 3.536C88.4689 2.96 87.3569 2.672 86.0609 2.672C84.7809 2.672 83.6689 2.96 82.7249 3.536C81.7809 4.096 81.0529 4.856 80.5409 5.816C80.0449 6.776 79.7969 7.856 79.7969 9.056C79.7969 10.24 80.0449 11.32 80.5409 12.296C81.0529 13.256 81.7809 14.024 82.7249 14.6C83.6689 15.16 84.7809 15.44 86.0609 15.44Z" fill="#16162E"/>
</svg>
