<?xml version="1.0" encoding="UTF-8"?>
<svg width="300" height="200" fill="#DADADA" version="1.1" viewBox="0 0 700 540" xmlns="http://www.w3.org/2000/svg" xmlns:xlink="http://www.w3.org/1999/xlink">
 <g>
  <path d="m513.44 64.48h-325.52c-20.484 0-40.129 8.1289-54.617 22.605-14.492 14.477-22.645 34.113-22.664 54.594v284.8c-0.042969 20.531 8.0781 40.238 22.574 54.777 14.492 14.539 34.176 22.723 54.707 22.742h325.52c20.48-0.019531 40.117-8.1719 54.594-22.664 14.473-14.488 22.605-34.133 22.605-54.617v-285.04c-0.023437-20.469-8.1641-40.09-22.637-54.566-14.473-14.473-34.094-22.613-54.562-22.633zm-325.52 12.078h325.52c17.262 0.023437 33.812 6.8906 46.023 19.098 12.207 12.207 19.074 28.758 19.094 46.023v240.48l-100.56-100.24c-12.746-12.703-30.008-19.836-48-19.836s-35.254 7.1328-48 19.836l-17.121 17.199-53.602-51.762h0.003906c-12.684-12.82-29.969-20.031-48-20.031-18.035 0-35.32 7.2109-48 20.031l-92.48 94.48v-200c-0.023437-17.293 6.8281-33.883 19.039-46.125 12.211-12.242 28.789-19.133 46.082-19.156zm-65.121 282.56 101.2-103.12c10.551-10.316 24.723-16.09 39.48-16.09 14.758 0 28.926 5.7734 39.48 16.09l53.602 51.68-61.762 61.68c-12.785 13.227-30.406 20.68-48.801 20.641h-123.2zm390.64 132.56h-325.52c-17.281-0.019532-33.844-6.8984-46.055-19.125-12.207-12.227-19.066-28.797-19.066-46.074v-24.402h123.2c21.52 0.019531 42.137-8.6289 57.199-24l87.602-87.68c10.637-10.145 24.777-15.809 39.48-15.809s28.84 5.6641 39.48 15.809l108.8 108.8v27.199h-0.003906c0.023437 17.293-6.8281 33.887-19.039 46.129-12.211 12.242-28.789 19.133-46.078 19.152z"/>
  <path d="m462 218.96c12.391 0 24.273-4.9219 33.035-13.684 8.7617-8.7617 13.684-20.645 13.684-33.039 0-12.391-4.9219-24.273-13.684-33.035-8.7617-8.7617-20.645-13.684-33.035-13.684s-24.273 4.9219-33.035 13.684c-8.7617 8.7617-13.684 20.645-13.684 33.035 0.019531 12.387 4.9492 24.258 13.707 33.016 8.7578 8.7578 20.629 13.684 33.012 13.707zm0-81.359c9.1914-0.023437 18.016 3.6094 24.527 10.098 6.5117 6.4883 10.18 15.297 10.191 24.488 0.015625 9.1914-3.625 18.012-10.117 24.52-6.4922 6.5039-15.305 10.164-24.496 10.172-9.1914 0.007813-18.008-3.6367-24.512-10.137-6.5-6.4961-10.152-15.309-10.152-24.504 0.019532-9.1641 3.6641-17.953 10.141-24.441 6.4727-6.4883 15.25-10.156 24.418-10.195z"/>
 </g>
</svg>
