<?xml version="1.0" encoding="UTF-8" standalone="no"?>
<svg
   xmlns:dc="http://purl.org/dc/elements/1.1/"
   xmlns:cc="http://creativecommons.org/ns#"
   xmlns:rdf="http://www.w3.org/1999/02/22-rdf-syntax-ns#"
   xmlns:svg="http://www.w3.org/2000/svg"
   xmlns="http://www.w3.org/2000/svg"
   xmlns:sodipodi="http://sodipodi.sourceforge.net/DTD/sodipodi-0.dtd"
   xmlns:inkscape="http://www.inkscape.org/namespaces/inkscape"
   version="1.1"
   width="717.00012"
   height="717.00012"
   id="svg10"
   viewBox="0 0 717.00012 717.00012"
   sodipodi:docname="Omniva_Logo.cdr">
  <metadata
     id="metadata16">
    <rdf:RDF>
      <cc:Work
         rdf:about="">
        <dc:format>image/svg+xml</dc:format>
        <dc:type
           rdf:resource="http://purl.org/dc/dcmitype/StillImage" />
      </cc:Work>
    </rdf:RDF>
  </metadata>
  <defs
     id="defs14" />
  <sodipodi:namedview
     pagecolor="#ffffff"
     bordercolor="#666666"
     borderopacity="1"
     objecttolerance="10"
     gridtolerance="10"
     guidetolerance="10"
     inkscape:pageopacity="0"
     inkscape:pageshadow="2"
     inkscape:window-width="640"
     inkscape:window-height="480"
     id="namedview12" />
  <path
     d="m 78.2602,11.0799 c 2.1398,-0.5899 3.67,1.37 5.1398,2.5501 21.99,20.34 51.65,32.0598 81.5901,32.3498 31.25,0.6001 62.5598,-11.2399 85.4499,-32.54 1.43,-1.1498 3.13,-3.2199 5.1701,-2.17 2.0199,1.3102 3.5798,3.17 5.29,4.83 18.28,18.3801 36.5899,36.7302 54.9598,55.0202 1.2002,1.2299 2.63,2.74 2.0602,4.6298 -2.1302,2.88 -5.0102,5.1001 -7.63,7.53 -23.9502,21.4401 -52.7601,37.43 -83.6802,46.2702 -40.28,11.5699 -83.9199,11.1398 -123.9499,-1.3 C 71.2198,118.5498 42.1802,101.36 18.3397,78.71 17.12,77.38 15.25,76.0798 15.6,74.0198 16.8501,71.59 19.1102,69.9 20.9499,67.95 39.3198,49.66 57.58,31.2498 75.9199,12.94 c 0.72,-0.7001 1.5001,-1.3201 2.3403,-1.8601 z"
     style="fill:#ea5b08;fill-rule:evenodd"
     id="path2" />
  <path
     d="m 406.5399,11.5 c 1.59,-1.36 3.4801,0.15 4.65,1.3198 19.5001,19.51 38.9902,39.03 58.5201,58.5102 1.04,1.16 2.5101,2.52 1.94,4.2599 -0.9201,1.6801 -2.33,3.0099 -3.5699,4.4399 -20.2802,22.4901 -31.58,52.71 -31.3002,82.9701 0.0201,30.6099 11.9602,61.0101 32.87,83.3701 1.8,1.5199 3.0901,4.3599 0.83,6.12 -19.7898,19.87 -39.64,39.6799 -59.47,59.5 -1.5299,2.02 -4.4399,1.99 -5.8899,-0.0901 C 388.0399,294.17 373.99,273.51 363.87,251.0599 348.9201,218.0499 342.6901,181.21 345.5701,145.1099 349.36,95.2899 371.11,46.8098 406.5399,11.5 Z"
     style="fill:#e9470a;fill-rule:evenodd"
     id="path4" />
  <path
     d="M 75.5301,164.3798 C 77.1198,162.7199 79.4,164 80.62,165.4099 c 17.8197,17.8399 35.6599,35.65 53.4501,53.5201 2.3,2.4098 4.9598,4.5199 6.87,7.2698 0.8,2.2002 -1.22,3.81 -2.4601,5.3101 -20.9699,22.72 -32.76,53.5901 -32.37,84.49 0.15,30.2301 11.92,60.23 32.4601,82.4301 1.0199,1.33 2.7998,2.5699 2.5098,4.4799 -0.0998,1.33 -1.3499,2.1401 -2.1098,3.0999 -19.5401,19.4301 -38.9002,39.0402 -58.4399,58.47 -1.0803,1.1401 -2.6502,2.1801 -4.2602,1.44 -2.3599,-1.6699 -4.1502,-3.9798 -6.12,-6.0599 C 50.02,437.6598 34.5199,411.2398 25.1899,382.74 11.97,342.6399 10.8801,298.67 21.9199,257.9299 c 9.5102,-35.0501 28.0199,-67.75 53.6102,-93.5501 z"
     style="fill:#e6035c;fill-rule:evenodd"
     id="path6" />
  <path
     d="m 231.5601,341.52 c 2.1999,-1.2501 4.03,1.0499 5.5599,2.3099 22.3001,20.6201 52.52,32.37 82.8901,32.2801 30.9299,0.33 61.77,-11.66 84.3698,-32.7702 1.5401,-1.7799 4.3501,-3.2899 6.1702,-0.9499 17.8999,17.78 35.6899,35.68 53.5499,53.5099 2.4199,2.56 5.2299,4.7801 7.3,7.6402 0.9499,1.62 -0.2999,3.28 -1.4601,4.3699 -25.9798,25.09 -58.3699,43.52 -93.28,52.8199 -39.2,10.5101 -81.3498,9.7501 -120.1198,-2.2399 -32.1602,-9.9201 -61.92,-27.57 -85.9901,-51.08 -1.9599,-1.4499 -1.47,-4.18 0.3101,-5.5401 18.32,-18.3398 36.68,-36.6499 54.9998,-55.0099 1.8601,-1.8199 3.5402,-3.86 5.7002,-5.3399 z m 230.72,189.6599 c 8.4799,-2.2601 17.86,4.1099 18.9298,12.81 1.4201,7.9801 -4.4198,16.2799 -12.39,17.6601 -8.35,1.8899 -17.2899,-4.42 -18.39,-12.88 -1.4298,-7.8001 4.1,-15.9602 11.8502,-17.5901 z m -405.9,43.5101 c 11.3499,-2.2102 23.4,-0.8802 33.8899,4.0198 12.7599,5.8501 23.1001,16.77 28.1999,29.8502 6.01,15.0296 4.8801,32.7002 -2.9599,46.8502 C 107.8601,669.48 93.8,679.88 78.0802,682.9301 63.8001,685.8801 48.4199,682.8198 36.3601,674.66 25.3603,667.2998 17.1602,655.8498 13.8301,643.0398 9.8103,628.18 12.3898,611.6801 20.83,598.81 28.7899,586.42 41.92,577.4798 56.3801,574.69 Z m 3.93,23.5298 c -4.9204,1.1001 -9.5704,3.3902 -13.4102,6.6603 -11.9398,9.68 -14.6999,28.4799 -5.9697,41.15 8.2595,13.2596 27.0396,18.1 40.7199,10.58 13.6301,-6.7402 20.45,-24.1404 15.0197,-38.3499 -4.8699,-14.55 -21.4396,-23.7303 -36.3597,-20.0404 z m 120.63,-23.2699 c 15.3598,-1.6101 32.4998,-3.3999 46.0999,5.5199 16.7799,-5.0899 34.5001,-8.1 52.0599,-6.26 7.78,0.8801 16.1501,3.0401 21.4501,9.2302 5.1001,5.8799 6.1299,14.0201 6.12,21.5299 0.03,24.0101 0,48.03 0.01,72.0403 0.11,1.8697 -0.2798,4.3999 -2.7099,4.3095 -7.27,0.1502 -14.58,0.2903 -21.8401,-0.0799 -2.16,-0.1701 -2.3899,-2.5597 -2.31,-4.22 0,-23.0301 0,-46.0596 0,-69.08 -0.0399,-4.0297 -0.4399,-8.4297 -3.1498,-11.6201 -2.5801,-3.0699 -6.7601,-4.0297 -10.6002,-4.1598 -9.0298,-0.29 -17.9799,1.3501 -26.7698,3.2499 -0.1701,27.5202 0.0499,55.0502 -0.11,82.5599 0.2398,1.9602 -1.1401,3.7001 -3.2202,3.4002 -7.6198,-0.1001 -15.3198,0.5998 -22.8798,-0.4899 -0.2801,-1.62 -0.5202,-3.23 -0.5301,-4.85 0.0201,-22.6999 0.0301,-45.4 0,-68.0902 -0.01,-4.82 -0.6599,-10.5296 -5,-13.4799 -4.5499,-2.9401 -10.2501,-2.3799 -15.3899,-2.1699 -6.7901,0.43 -13.4702,1.7399 -20.1401,2.9999 -0.83,28.3998 0.25,56.8701 -0.54,85.2701 -3.68,1.3898 -7.6601,0.7501 -11.49,0.87 -4.28,-0.1199 -8.6,0.2897 -12.8599,-0.2302 -2.1501,-0.1698 -2.3701,-2.5101 -2.27,-4.18 0.0499,-28.6999 -0.0502,-57.4001 0.0499,-86.0998 -0.1599,-4.25 2.8899,-7.84 6.7201,-9.3002 9.32,-3.7998 19.3799,-5.3498 29.3,-6.6699 z m 171.5298,2.7201 c 13.9402,-2.95 28.26,-4.5802 42.52,-3.8001 7.3502,0.5 15.0301,1.69 21.27,5.8799 4.7702,3.17 7.85,8.42 9.0902,13.9502 1.2699,5.3299 1.0598,10.86 1.08,16.3 -0.01,19.6699 0,39.3299 -0.01,59 -0.03,3.96 0.2999,7.9699 -0.53,11.88 -4.25,0.8898 -8.6001,0.47 -12.89,0.5398 -4.3002,-0.0698 -8.6601,0.3602 -12.89,-0.58 -0.32,-1.6002 -0.61,-3.2 -0.61,-4.8098 0.03,-22.6999 0,-45.3904 0.0198,-68.0902 -0.0598,-3.9597 -0.29,-8.3098 -2.8199,-11.5699 -2.52,-3.24 -6.8499,-4.1301 -10.73,-4.2299 -7.85,-0.17 -15.66,1.02 -23.32,2.6 -1.1699,0.36 -3.4699,0.3699 -3.0799,2.2201 -0.0501,24.6795 -0.0102,49.35 -0.0102,74.0296 -0.0799,3.0801 0.3002,6.23 -0.3798,9.2704 -1.6401,1.5795 -4.1001,1.0296 -6.16,1.1897 -5.97,-0.1698 -11.95,0.2398 -17.9101,-0.1998 -2.1799,-0.1199 -2.53,-2.52 -2.41,-4.2302 0,-28.3501 -0.01,-56.7 0,-85.0498 -0.1701,-3.4801 1.2101,-7.1501 4.2899,-9 4.6902,-2.9002 10.2002,-3.9802 15.48,-5.3 z m 271.44,1.19 c 15.6501,-4.1102 31.97,-6.01 48.1402,-4.8702 9.1299,0.7501 19.01,2.5101 25.9299,9.0301 5.88,5.61 7.0901,14.1998 7.03,21.95 -0.0199,18.6903 -0.0199,37.3697 0,56.06 -0.07,4.4098 -0.43,9.1803 -3.0799,12.89 -2.6101,3.5101 -6.9602,4.96 -10.9902,6.1197 -14.29,3.9501 -29.3,4.5 -44.03,3.6303 -9.8399,-0.7699 -20.44,-2.6898 -27.8898,-9.7002 -6.5301,-6.0596 -8.7902,-15.3198 -8.71,-23.9499 -0.11,-8.6598 2.06,-18 8.61,-24.1001 6.76,-6.3097 16.1498,-8.5595 25.0398,-9.8397 11.3701,-1.1301 22.75,-2.1302 34.1201,-3.2102 -0.11,-4.6301 0.6599,-9.5 -1.0301,-13.93 C 675.48,595.1799 671.17,593.91 667.5,593.34 c -14.0301,-1.7802 -28.19,0.6698 -41.73,4.2899 -1.84,0.3699 -3.74,1.1098 -5.61,0.6199 -1.8499,-3.1898 -1.9001,-7.12 -2.9399,-10.62 -0.25,-1.9998 -1.4901,-4.4699 0.08,-6.19 1.9298,-1.44 4.35,-1.8998 6.6098,-2.5798 z m 30.0501,54.1701 c -5.22,0.6596 -11.24,2.0398 -14.11,6.9301 -2.7601,5.0097 -2.85,11.2397 -1.2099,16.6295 1.5999,5.1103 6.5999,8.28 11.67,9.1601 9.1998,1.5801 18.72,0.7104 27.6599,-1.9 0.32,-11.13 0.11,-22.2801 0.11,-33.41 -8.06,0.7203 -16.0801,1.7203 -24.12,2.5903 z M 500.5699,576.5699 c 6.8001,-0.7999 13.6701,-0.22 20.49,-0.4099 2.2402,-0.04 5.47,-0.0802 5.9902,2.7598 7.4698,27.7501 14.4598,55.6404 21.92,83.4001 1.2798,-0.2001 1.9998,-0.9099 2.16,-2.1501 6.12,-26.3097 12.2899,-52.6096 18.39,-78.9199 0.4799,-1.58 0.72,-3.4999 2.1799,-4.5 2.66,-0.93 5.54,-0.4799 8.3001,-0.58 5.26,0.1599 10.5398,-0.2899 15.7799,0.2101 2.6,0.11 2.9299,3.3298 2.1101,5.25 -9.2701,31.7897 -18.5301,63.58 -27.7701,95.3802 -0.55,1.9794 -1.6901,4.4498 -4.1301,4.3095 -10.9899,0.2001 -22,0.1403 -32.9899,0.0405 -2.4401,0.1795 -3.8101,-2.1206 -4.3299,-4.1502 -8.9402,-29.9602 -17.8501,-59.9204 -26.79,-89.8801 -0.9201,-3.5101 -2.9701,-7.1501 -1.3102,-10.76 z M 452.94,579.26 c 1.4601,-1.77 4.0101,-1.1101 6.01,-1.2901 6.5401,0.2401 13.13,-0.4501 19.6299,0.4601 0.3501,1.8198 0.6202,3.6598 0.6202,5.5199 -0.0802,31.3398 0.0499,62.6899 -0.0601,94.03 0.43,2.4701 -1.9701,3.75 -4.1199,3.4399 -7.3102,-0.22 -14.7001,0.6103 -21.9401,-0.5698 -0.32,-1.6002 -0.5899,-3.2102 -0.58,-4.82 0.0201,-29.6802 0.0301,-59.3601 0,-89.03 0.07,-2.5801 -0.29,-5.2401 0.44,-7.74 z"
     style="fill:#e4022c;fill-rule:evenodd"
     id="path8" />
</svg>
