<svg width="148" height="28" viewBox="0 0 148 28" fill="none" xmlns="http://www.w3.org/2000/svg">
<path d="M70.3361 14.1505V22.8649H63.3837V15.1593C63.3837 12.736 62.5343 11.6327 60.6143 11.6327C58.6311 11.6327 57.5932 12.8627 57.5932 15.2519V22.8652H50.6739V7.13498H55.615L57.4062 10.3442C58.6311 7.92087 60.8028 6.66217 63.7607 6.66217C68.0721 6.66217 70.3361 9.24347 70.3361 14.1505Z" fill="#9339F2"/>
<path d="M73.1616 0.105644H80.2719V5.1834H73.1616V0.105644ZM73.2567 7.13393H80.1789V22.8663H73.2567V7.13393Z" fill="#9339F2"/>
<path d="M96.1898 6.66287C93.6391 6.66287 91.4422 7.60708 90.1199 9.49051V9.50187L90.116 9.49442L88.7977 7.13568H83.3849V27.9433H90.3042V20.948C91.7517 22.522 93.5123 23.3369 95.9683 23.3369C100.687 23.3369 103.866 20.0365 103.866 14.8739C103.867 9.93812 100.813 6.66287 96.1898 6.66287ZM93.4836 18.995C91.4674 18.995 90.1792 17.5187 90.1792 15.2509V14.6858C90.1792 12.2638 91.4042 10.9721 93.4506 10.9721C95.5285 10.9721 96.6928 12.3892 96.6928 14.8743C96.6932 17.4225 95.4959 18.995 93.4836 18.995Z" fill="#9339F2"/>
<path d="M115.063 6.65542C109.519 6.65542 105.779 8.80047 105.343 12.5105H112.381C112.537 11.2856 113.456 10.6207 115.021 10.6207C116.472 10.6207 117.362 11.1997 117.362 12.4257V13.016L111.79 13.5559C109.235 13.8367 107.6 14.3017 106.529 15.0918C105.43 15.882 104.894 17.0118 104.894 18.4935C104.894 21.483 107.319 23.3298 111.352 23.3298C114.36 23.3298 116.805 22.2149 117.662 20.4351V20.4199L117.666 20.4273C117.67 20.4234 117.67 20.4159 117.673 20.412V20.4422L119.025 22.8641H124.345V13.5268C124.344 8.87004 121.538 6.65542 115.063 6.65542ZM117.517 16.9274C117.517 18.4381 116.162 19.4643 114.146 19.4643C112.791 19.4643 111.946 18.8726 111.946 17.9284C111.946 17.0118 112.736 16.4773 114.498 16.2221L117.517 15.882V16.9274Z" fill="#9339F2"/>
<path d="M136.349 16.7371L133.854 18.9961V22.8666H126.933V0.0566559H133.854V12.6415L139.172 7.13393H147.478L141.729 12.6263L147.605 22.8666H139.958L136.349 16.7371Z" fill="#9339F2"/>
<path d="M26.8029 0.10601V22.8667H13.8045L0.649536 0.10601H8.44738L19.7672 19.8164V0.10601H26.8029Z" fill="#9339F2"/>
<path d="M48.701 15.1178C48.701 9.85684 45.4006 6.6146 39.4152 6.43605C39.242 6.42966 39.0613 6.42718 38.8806 6.42718C38.3294 6.42718 37.7795 6.45628 37.2741 6.52586C32.1381 7.04659 28.9072 10.1674 28.9072 14.8345C28.9072 20.0248 33.7006 23.1002 39.2345 23.1002C41.6401 23.1002 43.9179 22.812 46.5308 20.8085C46.7722 20.6254 47.0189 20.4245 47.2666 20.2079L44.8082 16.1894C44.6349 16.3903 44.4415 16.6029 44.2242 16.8187C43.2864 17.7441 41.9109 18.6859 39.8695 18.6859C37.6688 18.6859 35.7083 17.37 35.4542 15.8039H48.7014V15.1178H48.701ZM35.4534 12.4999C35.6089 10.806 36.7796 10.0805 38.7841 10.0805C40.7736 10.0805 41.9709 11.0197 41.9709 12.4999H35.4534Z" fill="#9339F2"/>
</svg>