<?xml version="1.0" encoding="iso-8859-1"?>
<!-- Generator: Adobe Illustrator 16.0.0, SVG Export Plug-In . SVG Version: 6.00 Build 0)  -->
<!DOCTYPE svg PUBLIC "-//W3C//DTD SVG 1.1//EN" "http://www.w3.org/Graphics/SVG/1.1/DTD/svg11.dtd">
<svg version="1.1" id="Capa_1" xmlns="http://www.w3.org/2000/svg" xmlns:xlink="http://www.w3.org/1999/xlink" x="0px" y="0px"
	 width="43.449px" height="43.45px" viewBox="0 0 43.449 43.45" style="enable-background:new 0 0 43.449 43.45;"
	 xml:space="preserve">
<g>
	<g>
		<path d="M28.007,2.036c-8.517,0-15.445,5.757-15.445,12.833c0,3.847,2.021,7.407,5.57,9.856l-0.39,4.109
			c-0.037,0.387,0.153,0.76,0.488,0.957c0.157,0.092,0.332,0.139,0.507,0.139c0.198,0,0.396-0.061,0.567-0.178l3.914-2.693
			c1.567,0.426,3.177,0.643,4.788,0.643c8.516,0,15.443-5.758,15.443-12.833C43.449,7.792,36.523,2.036,28.007,2.036z
			 M28.007,25.702c-1.578,0-3.151-0.232-4.679-0.691c-0.291-0.087-0.605-0.037-0.855,0.135l-2.537,1.746l0.244-2.572
			c0.036-0.375-0.142-0.738-0.46-0.939c-3.278-2.078-5.158-5.18-5.158-8.51c0-5.974,6.031-10.833,13.445-10.833
			c7.413,0,13.442,4.859,13.442,10.833C41.449,20.843,35.42,25.702,28.007,25.702z"/>
		<path d="M36.677,9.868H19.616c-0.553,0-1,0.447-1,1c0,0.553,0.447,1,1,1h17.061c0.554,0,1-0.447,1-1
			C37.677,10.314,37.23,9.868,36.677,9.868z"/>
		<path d="M36.677,13.868H19.616c-0.553,0-1,0.447-1,1c0,0.553,0.447,1,1,1h17.061c0.554,0,1-0.447,1-1
			C37.677,14.314,37.23,13.868,36.677,13.868z"/>
		<path d="M36.677,17.868H19.616c-0.553,0-1,0.447-1,1c0,0.553,0.447,1,1,1h17.061c0.554,0,1-0.447,1-1
			C37.677,18.314,37.23,17.868,36.677,17.868z"/>
		<path d="M20.006,35.852l-6.677-2.826l-0.347-0.644c1.365-1.475,2.3-4.054,2.3-6.521c0-4.034-2.498-5.84-4.975-5.84
			c-2.476,0-4.973,1.806-4.973,5.84c0,2.468,0.936,5.047,2.301,6.521l-0.348,0.642L0.61,35.852C0.24,36.007,0,36.372,0,36.772v3.642
			c0,0.553,0.447,1,1,1h18.616c0.553,0,1-0.447,1-1v-3.642C20.616,36.372,20.376,36.008,20.006,35.852z M18.616,39.414H2.001v-1.978
			l6.39-2.705c0.209-0.09,0.382-0.246,0.49-0.445l0.885-1.635c0.235-0.437,0.116-0.979-0.281-1.276
			c-1.205-0.901-2.149-3.322-2.149-5.513c0-2.403,1.111-3.84,2.973-3.84c1.862,0,2.975,1.437,2.975,3.84
			c0,2.188-0.943,4.609-2.148,5.512c-0.396,0.297-0.516,0.84-0.28,1.275l0.883,1.636c0.107,0.2,0.28,0.356,0.49,0.446l6.39,2.705
			v1.978H18.616z"/>
	</g>
</g>
<g>
</g>
<g>
</g>
<g>
</g>
<g>
</g>
<g>
</g>
<g>
</g>
<g>
</g>
<g>
</g>
<g>
</g>
<g>
</g>
<g>
</g>
<g>
</g>
<g>
</g>
<g>
</g>
<g>
</g>
</svg>
