<?xml version="1.0" encoding="utf-8"?>
<!-- Svg Vector Icons : http://www.onlinewebfonts.com/icon -->
<!DOCTYPE svg PUBLIC "-//W3C//DTD SVG 1.1//EN" "http://www.w3.org/Graphics/SVG/1.1/DTD/svg11.dtd">
<svg version="1.1" xmlns="http://www.w3.org/2000/svg" xmlns:xlink="http://www.w3.org/1999/xlink" x="0px" y="0px" viewBox="0 0 1000 1000" enable-background="new 0 0 1000 1000" xml:space="preserve">
<metadata> Svg Vector Icons : http://www.onlinewebfonts.com/icon </metadata>
<g><g transform="translate(0.000000,511.000000) scale(0.100000,-0.100000)"><path d="M5921,4962.3c-112.8-59.8-179.5-154.2-289.9-405c-409.6-931.8-934.2-1704.9-1787.8-2632.2c-168-184.1-460.2-474-648.8-644.2c-497-453.3-529.2-487.8-570.6-623.5c-50.6-177.2-52.9-4440.6,0-4567.2c41.4-101.3,126.5-135.8,379.6-156.5c400.3-29.9,846.7-158.7,1339.1-384.2c324.4-151.9,455.6-186.4,913.4-250.8c524.6-73.6,1046.9-98.9,1716.4-85.1c895,18.4,1373.6,98.9,1797,303.7c453.3,218.6,607.4,549.9,455.6,966.4c-110.5,301.4-105.9,324.4,82.8,529.2c158.8,170.3,223.2,287.6,255.4,467.1c41.4,225.5-2.3,375.1-232.4,775.4c-71.3,126.6-55.2,177.2,122,356.6c193.3,200.2,255.4,331.3,255.4,540.7c0,209.4-59.8,361.2-237,595.9c-156.5,207.1-179.5,287.6-128.8,432.6c20.7,52.9,57.5,156.5,82.8,225.5c179.5,501.6-41.4,876.6-628.1,1056.1c-434.8,131.2-1274.6,165.7-2066.2,80.5c-474-48.3-579.8-52.9-591.3-18.4c-4.6,13.8,50.6,96.6,124.3,179.5C7034.6,2597,7269.3,3568,6903.5,4354.9C6673.4,4856.4,6233.9,5125.6,5921,4962.3z"/><path d="M389.8,970.3c-27.6-18.4-59.8-62.1-75.9-96.6c-18.4-48.3-25.3-750.1-20.7-2694.3l6.9-2632.2l64.4-55.2l64.4-55.2h598.2h600.5l66.7,66.7l66.7,66.7v2650.6V871.4l-66.7,66.7l-66.7,66.7h-595.9C546.2,1004.8,428.9,997.9,389.8,970.3z"/></g></g>
</svg>