<svg width="942" height="980" viewBox="0 0 942 980" fill="none" xmlns="http://www.w3.org/2000/svg">
<path d="M257.225 880.639C257.028 877.498 256.833 873.443 256.646 868.498C256.166 855.877 255.764 838.335 255.444 817.386C254.803 775.534 254.494 720.641 254.509 665.524C254.523 610.409 254.861 555.193 255.508 512.699C255.833 491.432 256.233 473.474 256.704 460.35C256.94 453.766 257.189 448.575 257.441 444.864C257.579 442.82 257.697 441.658 257.75 441.134C258.292 439.481 258.57 438.925 258.831 438.463C259.222 437.77 260.22 436.21 263.269 432.883C269.844 425.706 281.993 414.461 307.251 391.423C326.675 373.89 356.403 344.398 373.758 325.384C460.54 231.103 514.704 151.538 556.991 55.3421C556.993 55.3382 556.995 55.3343 556.996 55.3304C567.824 30.7341 571.686 28.5156 574.718 26.9063C580.105 24.1218 589.272 23.5147 602.211 31.4913C615.082 39.426 628.809 54.5365 638.628 75.9356L638.654 75.9921L638.68 76.0485C669.582 142.525 651.87 229.144 578.577 314.094C574.328 318.885 570.487 323.799 567.607 328.007C566.201 330.063 564.69 332.433 563.459 334.818C562.878 335.943 561.991 337.77 561.275 339.982C560.917 341.088 560.403 342.889 560.128 345.133C559.89 347.075 559.561 351.369 561.243 356.416C566.068 370.89 579.402 374.153 583.269 374.902C588.115 375.84 593.432 375.832 598.006 375.681C607.757 375.36 623.192 373.929 646.624 371.541L646.695 371.534L646.765 371.526C724.601 363.149 804.643 366.952 843.431 378.637C869.367 386.578 883.061 397.608 889.346 408.202C895.208 418.082 897.14 431.847 890.014 451.816C889.128 454.234 888.169 456.884 887.212 459.528C885.234 464.993 883.263 470.436 881.959 473.77L881.792 474.196L881.641 474.628C878.086 484.794 876.04 496.1 879.937 509.274C883.247 520.462 890.33 530.832 898.168 541.204C898.169 541.205 898.17 541.206 898.171 541.207C898.172 541.209 898.173 541.211 898.174 541.212C913.861 561.991 916.82 571.988 916.82 585.73C916.82 593.452 915.727 598.131 913.696 602.428C911.429 607.225 907.208 613.193 898.39 622.337C893.854 626.932 889.684 631.364 886.3 635.635C882.938 639.878 879.357 645.177 877.186 651.581C871.879 667.227 877.907 679.934 882.297 687.728L882.351 687.824L882.406 687.919C893.86 707.846 899.379 719.404 901.926 727.935C904.075 735.136 904.206 740.454 902.731 748.486L902.722 748.536L902.713 748.586C900.553 760.626 897.021 768.155 883.496 782.66L883.445 782.715L883.394 782.77C878.851 787.701 874.171 792.842 870.565 797.938C866.656 803.462 863.065 810.188 861.727 818.639C860.435 826.808 861.622 834.296 863.252 840.696C864.831 846.896 867.323 853.857 870.015 861.199C875.878 877.293 874.949 888.877 870.784 897.74C866.394 907.085 856.54 917.367 837.081 926.752L837.067 926.758L837.054 926.765C799.72 944.823 756.321 952.824 667.726 954.645L667.725 954.645C601.753 956.005 550.905 953.503 500.083 946.374L257.225 880.639ZM257.225 880.639C257.906 880.789 258.702 880.947 259.627 881.109C262.975 881.694 267.385 882.221 273.304 882.706C317.131 885.995 364.69 899.974 415.669 923.32L415.766 923.364L415.862 923.409C431.561 930.761 441.467 934.737 452.514 937.755C463.89 940.861 477.215 943.157 500.073 946.372L257.225 880.639ZM257.78 886.872C257.783 886.86 257.76 886.687 257.702 886.39C257.748 886.735 257.777 886.884 257.78 886.872Z" fill="white" stroke="black" stroke-width="50"/>
<path d="M26.8409 418.619C26.9068 418.228 26.9006 418.143 26.8555 418.495C26.8519 418.523 26.847 418.564 26.8409 418.619ZM26.3897 426.19C26.3303 427.657 26.2714 429.32 26.2138 431.193C25.9065 441.199 25.6638 456.272 25.4917 477.452C25.1478 519.76 25.09 585.794 25.3199 682.994C25.3199 682.997 25.3199 682.999 25.3199 683.001L25.9735 932.32H73.71H122.1V678.92V425.52H74.17C49.7752 425.52 35.3908 425.699 26.6963 426.173C26.5928 426.178 26.4906 426.184 26.3897 426.19ZM19.2342 426.883C19.2369 426.885 19.3011 426.872 19.4189 426.842C19.2904 426.867 19.2315 426.882 19.2342 426.883Z" fill="white" stroke="black" stroke-width="50"/>
</svg>
