<svg width="90" height="78" viewBox="0 0 90 78" fill="none" xmlns="http://www.w3.org/2000/svg">
<path d="M67.3158 59.9474H58.1053C57.0884 59.9474 56.2632 59.1221 56.2632 58.1053C56.2632 57.0884 57.0884 56.2632 58.1053 56.2632H67.3158C77.4732 56.2632 85.7369 47.9995 85.7369 37.8421C85.7369 28.09 78.1363 20.029 68.4321 19.4911C67.7505 19.4542 67.15 19.0453 66.8627 18.43C62.9648 10.0816 54.469 4.68421 45.2105 4.68421C33.3658 4.68421 23.19 13.5079 21.5395 25.2053C21.4105 26.1116 20.6332 26.7895 19.7158 26.7895C11.2937 26.7895 4.68421 33.399 4.68421 41.5263C4.68421 49.6537 11.2937 56.2632 19.4211 56.2632H32.3158C33.3326 56.2632 34.1579 57.0884 34.1579 58.1053C34.1579 59.1221 33.3326 59.9474 32.3158 59.9474H19.4211C9.26369 59.9474 1 51.6837 1 41.5263C1 31.7926 8.58579 23.8016 18.1537 23.1495C20.7032 10.4168 32.069 1 45.2105 1C55.53 1 65.0353 6.81369 69.7216 15.899C80.8553 17.0668 89.4211 26.5021 89.4211 37.8421C89.4211 50.0332 79.5069 59.9474 67.3158 59.9474V59.9474Z" fill="#F66A08" stroke="#F66A08"/>
<path d="M45 77C43.896 77 43 76.0272 43 74.8286V41.1714C43 39.9728 43.896 39 45 39C46.104 39 47 39.9728 47 41.1714V74.8286C47 76.0272 46.104 77 45 77Z" fill="#F66A08" stroke="#F66A08"/>
<path d="M54.4245 50.7365C53.9529 50.7365 53.4813 50.556 53.1203 50.1986L45.2139 42.2886L37.3076 50.1949C36.5892 50.9133 35.4213 50.9133 34.7029 50.1949C33.9845 49.4765 33.9845 48.3086 34.7029 47.5902L43.9134 38.3796C44.6318 37.6612 45.7997 37.6612 46.5181 38.3796L55.7287 47.5902C56.4471 48.3086 56.4471 49.4765 55.7287 50.1949C55.3676 50.556 54.896 50.7365 54.4245 50.7365V50.7365Z" fill="currentColor" stroke="#F66A08"/>
</svg>
